<svg width="96" height="46" viewBox="0 0 96 46" fill="none" xmlns="http://www.w3.org/2000/svg">
<path fill-rule="evenodd" clip-rule="evenodd" d="M42.5498 10.4057C42.5498 15.8765 38.1149 20.3115 32.6441 20.3115C27.1733 20.3115 22.7383 15.8765 22.7383 10.4057C22.7383 4.93496 27.1733 0.5 32.6441 0.5C38.1149 0.5 42.5498 4.93496 42.5498 10.4057ZM0.584961 27.5165H3.41788V41.4072H0.584961V27.5165ZM5.06126 36.6479C5.05939 35.6502 5.35354 34.6743 5.90649 33.8438C6.45944 33.0133 7.24633 32.3655 8.16759 31.9824C9.08879 31.5993 10.103 31.4981 11.0818 31.6916C12.0606 31.8851 12.96 32.3646 13.6661 33.0695C14.3723 33.7743 14.8535 34.6728 15.0488 35.6512C15.2442 36.6296 15.1449 37.644 14.7635 38.566C14.3821 39.4879 13.7358 40.276 12.9063 40.8305C12.0769 41.3851 11.1016 41.681 10.1039 41.681C9.44029 41.6886 8.78199 41.5637 8.16739 41.3135C7.55281 41.0634 6.99432 40.6931 6.52468 40.2243C6.05504 39.7556 5.68369 39.1978 5.4324 38.5836C5.18111 37.9695 5.05493 37.3114 5.06126 36.6479ZM12.2946 36.6479C12.2835 36.2172 12.1456 35.7993 11.8982 35.4466C11.6508 35.0938 11.3049 34.8219 10.9037 34.6647C10.5025 34.5075 10.0639 34.4722 9.64279 34.563C9.22159 34.6538 8.83659 34.8668 8.53579 35.1753C8.23509 35.4838 8.03199 35.8742 7.95193 36.2976C7.87188 36.7209 7.91846 37.1585 8.08579 37.5555C8.25319 37.9525 8.53389 38.2914 8.89279 38.5297C9.25179 38.768 9.67299 38.8952 10.1039 38.8953C10.3986 38.9036 10.6919 38.8507 10.9652 38.7399C11.2385 38.6291 11.4859 38.4629 11.6918 38.2517C11.8976 38.0405 12.0575 37.789 12.1612 37.513C12.265 37.2369 12.3104 36.9424 12.2946 36.6479ZM26.5345 40.9349V31.8885L23.7488 31.9168V32.8611C23.4143 32.4531 22.9891 32.1288 22.5071 31.914C22.0251 31.6993 21.4997 31.6 20.9726 31.6241C19.6903 31.6241 18.4606 32.1335 17.5538 33.0402C16.6471 33.9469 16.1377 35.1766 16.1377 36.4589C16.1377 37.7412 16.6471 38.971 17.5538 39.8777C18.4606 40.7844 19.6903 41.2938 20.9726 41.2938C21.5 41.3201 22.0262 41.2218 22.5085 41.0069C22.9908 40.792 23.4158 40.4665 23.7488 40.0567V40.9349C23.7759 41.2229 23.7365 41.5132 23.6336 41.7835C23.5307 42.0538 23.3671 42.2969 23.1555 42.494C22.9438 42.6911 22.6897 42.8369 22.4127 42.9202C22.1357 43.0036 21.8433 43.0222 21.5581 42.9746C21.1245 43.0105 20.6902 42.9153 20.3114 42.7015C19.9326 42.4877 19.6267 42.165 19.4334 41.7754L16.9971 43.1824C17.4642 43.9427 18.1315 44.5599 18.926 44.9663C19.7205 45.3727 20.6115 45.5527 21.5014 45.4865C24.0321 45.4865 26.5345 44.1361 26.5345 40.9349ZM23.4073 35.1541C23.6487 35.5453 23.7677 35.9997 23.7488 36.4589C23.7575 36.7596 23.7031 37.0587 23.5891 37.337C23.4751 37.6153 23.304 37.8667 23.087 38.0749C22.8699 38.2831 22.6116 38.4434 22.3287 38.5457C22.0459 38.648 21.7448 38.6898 21.4447 38.6686C20.9851 38.6682 20.5361 38.5304 20.1554 38.2727C19.7747 38.0151 19.4798 37.6496 19.3085 37.223C19.1372 36.7965 19.0974 36.3284 19.1943 35.8791C19.2911 35.4298 19.5201 35.0197 19.8519 34.7015C20.1836 34.3834 20.6029 34.1717 21.0559 34.0938C21.5089 34.0158 21.9749 34.0751 22.3939 34.2641C22.8129 34.453 23.1658 34.763 23.4073 35.1541ZM28.1682 36.6479C28.1663 35.6502 28.4605 34.6743 29.0134 33.8438C29.5664 33.0133 30.3533 32.3655 31.2745 31.9824C32.1957 31.5993 33.2099 31.4981 34.1887 31.6916C35.1675 31.8851 36.0669 32.3646 36.7731 33.0695C37.4792 33.7743 37.9604 34.6728 38.1558 35.6512C38.3511 36.6296 38.2518 37.644 37.8704 38.566C37.489 39.4879 36.8427 40.276 36.0133 40.8305C35.1838 41.3851 34.2085 41.681 33.2108 41.681C32.5473 41.6886 31.8889 41.5637 31.2743 41.3135C30.6597 41.0634 30.1012 40.6931 29.6316 40.2243C29.162 39.7556 28.7906 39.1978 28.5393 38.5836C28.288 37.9695 28.1618 37.3114 28.1682 36.6479ZM35.4016 36.6479C35.3904 36.2172 35.2525 35.7993 35.0051 35.4466C34.7577 35.0938 34.4118 34.8219 34.0106 34.6647C33.6095 34.5075 33.1709 34.4722 32.7497 34.563C32.3285 34.6538 31.9435 34.8668 31.6427 35.1753C31.342 35.4838 31.1389 35.8742 31.0588 36.2976C30.9788 36.7209 31.0254 37.1585 31.1927 37.5555C31.3601 37.9525 31.6408 38.2914 31.9997 38.5297C32.3587 38.768 32.7799 38.8952 33.2108 38.8953C33.504 38.9009 33.7952 38.8461 34.0663 38.7341C34.3373 38.6221 34.5824 38.4555 34.7862 38.2446C34.99 38.0338 35.1481 37.7831 35.2508 37.5084C35.3534 37.2337 35.3983 36.9407 35.3827 36.6479H35.4016ZM39.8555 28.3842C39.6667 28.6668 39.5659 28.9991 39.5659 29.339C39.5684 29.7941 39.7502 30.2298 40.072 30.5515C40.3938 30.8733 40.8295 31.0552 41.2845 31.0576C41.6245 31.0576 41.9567 30.9568 42.2394 30.768C42.522 30.5792 42.7423 30.3107 42.8724 29.9967C43.0024 29.6827 43.0365 29.3371 42.9701 29.0037C42.9038 28.6703 42.7402 28.3641 42.4998 28.1237C42.2594 27.8834 41.9532 27.7197 41.6198 27.6534C41.2864 27.5871 40.9409 27.6211 40.6268 27.7512C40.3128 27.8813 40.0444 28.1016 39.8555 28.3842ZM42.6915 31.8886H39.8586V41.4072H42.6915V31.8886ZM55.0429 36.648C55.0772 37.2772 54.9868 37.907 54.7768 38.5011C54.5667 39.0952 54.2413 39.6419 53.8191 40.1097C53.3969 40.5775 52.8864 40.9572 52.3169 41.2269C51.7474 41.4966 51.1302 41.651 50.5008 41.6812C49.9724 41.7065 49.4448 41.6157 48.9554 41.415C48.4659 41.2143 48.0264 40.9087 47.6679 40.5197V45.2412H44.835V31.8887H47.6679V32.7858C48.0264 32.3968 48.4659 32.0912 48.9554 31.8905C49.4448 31.6898 49.9724 31.599 50.5008 31.6243C51.1294 31.6545 51.7458 31.8086 52.3146 32.0777C52.8835 32.3469 53.3936 32.7257 53.8156 33.1925C54.2377 33.6593 54.5633 34.2048 54.7739 34.7978C54.9846 35.3908 55.076 36.0196 55.0429 36.648ZM52.21 36.648C52.1988 36.2048 52.0578 35.7746 51.8045 35.4107C51.5512 35.0469 51.1968 34.7652 50.7851 34.6008C50.3734 34.4363 49.9224 34.3962 49.4882 34.4855C49.0539 34.5747 48.6553 34.7894 48.3418 35.1029C48.0283 35.4164 47.8137 35.8149 47.7244 36.2492C47.6352 36.6835 47.6753 37.1344 47.8397 37.5461C48.0042 37.9578 48.2858 38.3123 48.6497 38.5655C49.0136 38.8188 49.4438 38.9598 49.887 38.971C50.1963 38.9907 50.5062 38.9439 50.796 38.8339C51.0857 38.7238 51.3485 38.553 51.5668 38.333C51.785 38.1129 51.9537 37.8487 52.0614 37.5581C52.169 37.2675 52.2133 36.9572 52.1911 36.648H52.21ZM59.8969 41.681C61.9744 41.681 63.863 40.7462 63.863 38.5554C63.863 36.287 61.9203 35.781 60.5271 35.4182C59.7571 35.2177 59.155 35.0609 59.1415 34.6743C59.1415 34.3249 59.4437 34.136 59.9347 34.136C60.2072 34.1367 60.4735 34.2165 60.7015 34.3657C60.9295 34.5149 61.1093 34.7271 61.219 34.9765L63.7025 33.6733C63.3205 33.0325 62.7742 32.5054 62.12 32.1468C61.4658 31.7881 60.7276 31.611 59.9819 31.6336C57.9611 31.6336 56.2047 32.6818 56.2047 34.7593C56.2047 36.8594 58.133 37.3899 59.525 37.7728C60.3111 37.989 60.9262 38.1582 60.9262 38.5365C60.9262 38.9142 60.5863 39.1314 59.8969 39.1314C59.5399 39.1566 59.1851 39.0588 58.8913 38.8544C58.5976 38.65 58.3826 38.3512 58.2822 38.0077L55.8081 39.4147C56.1856 40.1574 56.7768 40.7701 57.5054 41.174C58.2341 41.5779 59.067 41.7545 59.8969 41.681ZM74.2879 31.8885V41.4072H71.4549V40.5196C71.1254 40.9139 70.7072 41.2248 70.2345 41.4267C69.7619 41.6286 69.2481 41.7156 68.7353 41.681C66.8467 41.681 65.1753 40.3117 65.1753 37.7338V31.8885H68.0082V37.3184C67.9833 37.5498 68.0103 37.7838 68.0871 38.0035C68.1639 38.2232 68.2886 38.423 68.4523 38.5885C68.6159 38.754 68.8144 38.8808 69.0332 38.96C69.252 39.0393 69.4858 39.0688 69.7174 39.0465C70.7562 39.0465 71.4833 38.4421 71.4833 37.0918V31.8885H74.2879ZM90.6625 41.4071V35.5713C90.6625 33.1917 89.2366 31.6242 87.0835 31.6242C86.5553 31.5834 86.0253 31.6773 85.5431 31.8969C85.0609 32.1165 84.6422 32.4548 84.3262 32.8801C84.0544 32.4733 83.682 32.1438 83.2451 31.9237C82.8083 31.7037 82.3218 31.6004 81.8332 31.6242C81.3467 31.587 80.8586 31.6721 80.4133 31.8717C79.968 32.0712 79.5797 32.3789 79.2836 32.7668V31.8886H76.4507V41.4071H79.2836V36.0435C79.2836 34.9198 79.8502 34.2493 80.7661 34.2493C81.6821 34.2493 82.1354 34.8726 82.1354 35.8169V41.4071H84.9683V36.0435C84.9683 34.9198 85.5538 34.2493 86.4603 34.2493C87.3668 34.2493 87.8295 34.8726 87.8295 35.8169V41.4071H90.6625ZM93.0797 31.8319C94.2479 31.8319 95.1949 30.8848 95.1949 29.7166C95.1949 28.5484 94.2479 27.6014 93.0797 27.6014C91.9115 27.6014 90.9644 28.5484 90.9644 29.7166C90.9644 30.8848 91.9115 31.8319 93.0797 31.8319ZM54.7881 20.3115C60.2589 20.3115 64.6938 15.8765 64.6938 10.4057C64.6938 4.93496 60.2589 0.5 54.7881 0.5C49.3173 0.5 44.8823 4.93496 44.8823 10.4057C44.8823 15.8765 49.3173 20.3115 54.7881 20.3115ZM0.604004 0.5H20.406V20.302H0.604004V0.5Z" fill="white" fill-opacity="0.8"/>
</svg>
