<svg width="115" height="26" viewBox="0 0 115 26" fill="none" xmlns="http://www.w3.org/2000/svg">
<path d="M0.940918 25.8251H26.5909V0.175049H0.940918V25.8251ZM21.6539 10.532H16.2339V5.11205H21.6539V10.532ZM5.87692 5.11205H11.2999V15.468H21.6539V20.8881H5.87692V5.11205ZM43.2939 0.175049C40.7573 0.175049 38.2777 0.927229 36.1687 2.33646C34.0596 3.74569 32.4158 5.74868 31.4451 8.09215C30.4744 10.4356 30.2205 13.0142 30.7153 15.502C31.2102 17.9898 32.4316 20.275 34.2252 22.0686C36.0188 23.8623 38.304 25.0837 40.7918 25.5786C43.2797 26.0735 45.8583 25.8195 48.2018 24.8489C50.5453 23.8782 52.5482 22.2344 53.9575 20.1252C55.3667 18.0161 56.1189 15.5365 56.1189 13C56.1149 9.59985 54.7624 6.34009 52.3581 3.9358C49.9538 1.5315 46.6941 0.179019 43.2939 0.175049ZM43.2939 20.8881C41.7338 20.8881 40.2087 20.4254 38.9115 19.5586C37.6144 18.6919 36.6033 17.46 36.0063 16.0186C35.4093 14.5773 35.2531 12.9913 35.5574 11.4611C35.8618 9.93105 36.6131 8.52555 37.7162 7.42239C38.8194 6.31924 40.2249 5.56798 41.755 5.26362C43.2851 4.95926 44.8711 5.11547 46.3125 5.71249C47.7538 6.30951 48.9858 7.32054 49.8525 8.61775C50.7193 9.91485 51.1819 11.4399 51.1819 13C51.1787 15.0911 50.3466 17.0956 48.868 18.5742C47.3894 20.0528 45.3849 20.8848 43.2939 20.8881ZM102.013 0.175049C99.4759 0.174859 96.9966 0.926859 94.8874 2.33597C92.7782 3.74508 91.1343 5.748 90.1634 8.09145C89.1926 10.4348 88.9384 13.0136 89.4332 15.5014C89.9279 17.9893 91.1493 20.2747 92.9429 22.0683C94.7364 23.862 97.0216 25.0837 99.5099 25.5786C101.997 26.0735 104.576 25.8195 106.92 24.8489C109.263 23.8783 111.266 22.2344 112.675 20.1253C114.085 18.0162 114.837 15.5366 114.837 13C114.833 9.60005 113.481 6.34041 111.077 3.93615C108.673 1.53188 105.413 0.179289 102.013 0.175049ZM102.013 20.8881C100.453 20.8883 98.9279 20.4257 97.6303 19.5591C96.333 18.6925 95.3218 17.4606 94.7246 16.0193C94.1274 14.578 93.9711 12.9919 94.2753 11.4617C94.5796 9.93165 95.3308 8.52605 96.4339 7.42275C97.537 6.31949 98.9429 5.56813 100.473 5.26369C102.003 4.95925 103.589 5.1154 105.03 5.7124C106.472 6.30939 107.704 7.32041 108.571 8.61765C109.437 9.91485 109.9 11.4399 109.9 13C109.897 15.0909 109.065 17.0952 107.586 18.5738C106.108 20.0524 104.104 20.8846 102.013 20.8881ZM72.6529 0.175049C70.1163 0.175049 67.6367 0.927229 65.5277 2.33646C63.4186 3.74569 61.7748 5.74868 60.8041 8.09215C59.8334 10.4356 59.5795 13.0142 60.0743 15.502C60.5692 17.9898 61.7906 20.275 63.5842 22.0686C65.3778 23.8623 67.663 25.0837 70.1508 25.5786C72.6386 26.0735 75.2173 25.8195 77.5608 24.8489C79.9043 23.8782 81.9072 22.2344 83.3165 20.1252C84.7257 18.0161 85.4779 15.5365 85.4779 13C85.4739 9.59985 84.1214 6.34009 81.7171 3.9358C79.3128 1.5315 76.0531 0.179019 72.6529 0.175049ZM72.6529 20.8881C71.1993 20.8888 69.7739 20.4879 68.5338 19.7295C67.2938 18.9712 66.2873 17.8852 65.6256 16.591C64.964 15.2968 64.6727 13.8448 64.7841 12.3956C64.8955 10.9463 65.4051 9.55605 66.2568 8.37815C67.1085 7.20031 68.2691 6.28066 69.6104 5.72076C70.9518 5.16085 72.4218 4.98247 73.8581 5.20529C75.2945 5.42812 76.6413 6.04348 77.75 6.98347C78.8587 7.92345 79.6861 9.15155 80.1409 10.532H72.6529V15.468H80.1409C79.62 17.0433 78.6164 18.4148 77.2723 19.3876C75.9283 20.3605 74.3121 20.8853 72.6529 20.8881Z" fill="white" fill-opacity="0.8"/>
</svg>
