<svg width="160" height="700" viewBox="0 0 160 700" fill="none" xmlns="http://www.w3.org/2000/svg">
<g clip-path="url(#clip0_342_151)">
<path d="M136.012 72.361H159.012V0.0610352L0.988144 0.0610352V72.361H23.9881C23.9881 57.5503 29.8897 43.3461 40.3939 32.8736C50.8981 22.4009 65.1446 16.5174 79.9999 16.5174C94.8552 16.5174 109.102 22.4009 119.606 32.8736C130.11 43.3461 136.012 57.5503 136.012 72.361Z" fill="white" fill-opacity="0.3"/>
<path d="M136.012 72.3608H23.9881C23.9881 87.1715 29.8897 101.376 40.3939 111.849C50.8981 122.321 65.1446 128.204 79.9999 128.204C94.8552 128.204 109.102 122.321 119.606 111.849C130.11 101.376 136.012 87.1715 136.012 72.3608Z" fill="white" fill-opacity="0.3"/>
<path d="M121.941 168.779V184.965H43.7414V168.779H121.941Z" fill="white" fill-opacity="0.3"/>
<path d="M70.5293 194.03C76.1553 194.03 81.6548 195.695 86.3305 198.815C91.0063 201.935 94.6479 206.368 96.7936 211.554C98.9389 216.74 99.492 222.443 98.3825 227.942C97.2731 233.441 94.551 238.488 90.5615 242.443C86.5714 246.398 81.494 249.084 75.9719 250.158C70.4497 251.233 64.7322 250.649 59.5434 248.48C54.3551 246.311 49.9288 242.655 46.8268 237.976C43.7243 233.296 42.0856 227.804 42.1175 222.195C42.0883 218.474 42.8043 214.785 44.2243 211.345C45.6438 207.904 47.7382 204.78 50.384 202.157C53.0303 199.533 56.1757 197.464 59.6348 196.068C63.0941 194.672 66.7979 193.98 70.5293 194.03ZM70.5293 234.604C72.9548 234.541 75.3079 233.765 77.2934 232.375C79.2796 230.985 80.8105 229.043 81.6948 226.79C82.5791 224.537 82.7777 222.075 82.2652 219.71C81.7533 217.346 80.5535 215.184 78.8152 213.496C77.0775 211.808 74.8792 210.668 72.4948 210.219C70.1104 209.77 67.6464 210.031 65.4108 210.971C63.1752 211.911 61.2665 213.487 59.9249 215.503C58.5828 217.518 57.8668 219.883 57.8657 222.302C57.8333 223.95 58.1423 225.586 58.7733 227.108C59.4038 228.631 60.3427 230.007 61.5311 231.152C62.7196 232.296 64.1326 233.184 65.6803 233.759C67.2286 234.335 68.8792 234.586 70.5293 234.496V234.604Z" fill="white" fill-opacity="0.3"/>
<path d="M97.3174 314.404H46.3927C28.4257 314.404 20.7951 300.376 20.7951 286.185C20.3832 281.18 21.3806 276.159 23.6752 271.689C25.9698 267.219 29.4706 263.475 33.7833 260.88L41.6845 274.531C39.4472 275.637 37.6018 277.397 36.3934 279.575C35.1849 281.754 34.6708 284.248 34.9198 286.725C34.7249 288.303 34.8819 289.905 35.3798 291.415C35.8782 292.925 36.7046 294.307 37.801 295.462C38.8974 296.617 40.2357 297.516 41.7213 298.095C43.2063 298.674 44.8017 298.918 46.3927 298.811H51.3174C49.0266 296.927 47.2083 294.537 46.0058 291.831C44.8033 289.124 44.2502 286.175 44.3904 283.218C44.3904 276.063 47.2413 269.201 52.3159 264.142C57.39 259.083 64.2726 256.24 71.4492 256.24C78.6257 256.24 85.5079 259.083 90.5825 264.142C95.6571 269.201 98.508 276.063 98.508 283.218C98.6482 286.175 98.0951 289.124 96.8926 291.831C95.6901 294.537 93.8717 296.927 91.5809 298.811H96.9927L97.3174 314.404ZM71.6115 298.811C74.2005 298.918 76.763 298.251 78.9688 296.895C81.1747 295.54 82.9232 293.557 83.9899 291.202C85.0565 288.848 85.392 286.229 84.9537 283.682C84.5153 281.136 83.3231 278.778 81.5302 276.913C79.7373 275.048 77.4254 273.76 74.8921 273.215C72.3589 272.67 69.7207 272.893 67.3157 273.855C64.9107 274.818 62.8493 276.475 61.3968 278.614C59.9443 280.754 59.1666 283.278 59.1645 285.862C59.0427 287.548 59.277 289.24 59.8518 290.83C60.427 292.42 61.3303 293.872 62.5035 295.092C63.6763 296.313 65.0931 297.274 66.6619 297.915C68.2308 298.555 69.9171 298.861 71.6115 298.811Z" fill="white" fill-opacity="0.3"/>
<path d="M70.5295 323.522C76.1513 323.522 81.6464 325.185 86.32 328.3C90.9936 331.415 94.6352 335.842 96.7836 341.021C98.9326 346.2 99.4922 351.899 98.3915 357.395C97.2907 362.891 94.5794 367.938 90.6007 371.898C86.6214 375.857 81.5538 378.551 76.0393 379.637C70.5241 380.725 64.8098 380.156 59.6194 378.004C54.4285 375.851 49.9951 372.212 46.8796 367.547C43.764 362.882 42.107 357.4 42.1178 351.795C42.0815 348.068 42.7921 344.37 44.2078 340.92C45.6235 337.47 47.7157 334.337 50.3621 331.704C53.0084 329.07 56.1554 326.99 59.6183 325.585C63.0813 324.181 66.7911 323.479 70.5295 323.522ZM70.5295 364.097C72.9573 364.033 75.3125 363.256 77.2997 361.864C79.2863 360.472 80.8173 358.526 81.7 356.27C82.5826 354.014 82.778 351.549 82.2612 349.183C81.7449 346.817 80.5391 344.656 78.796 342.969C77.0529 341.283 74.8492 340.148 72.4615 339.705C70.0739 339.262 67.6083 339.531 65.3738 340.479C63.1387 341.427 61.2343 343.012 59.8987 345.035C58.5636 347.057 57.8563 349.427 57.866 351.849C57.8335 353.496 58.1425 355.132 58.7736 356.655C59.404 358.177 60.343 359.554 61.5314 360.698C62.7198 361.842 64.1328 362.73 65.6806 363.306C67.2289 363.881 68.8795 364.132 70.5295 364.043V364.097Z" fill="white" fill-opacity="0.3"/>
<path d="M111.659 387.567C113.564 387.567 115.427 388.131 117.011 389.186C118.595 390.241 119.83 391.741 120.559 393.496C121.288 395.251 121.479 397.182 121.107 399.045C120.735 400.908 119.818 402.619 118.471 403.963C117.123 405.306 115.407 406.22 113.539 406.591C111.67 406.962 109.733 406.771 107.973 406.044C106.213 405.318 104.708 404.086 103.65 402.507C102.591 400.928 102.026 399.071 102.026 397.171C102.054 394.633 103.078 392.206 104.879 390.411C106.679 388.616 109.113 387.595 111.659 387.567ZM97.3179 389.132V405.319H43.7414V389.132H97.3179Z" fill="white" fill-opacity="0.3"/>
<path d="M70.5294 474.597C66.9663 474.778 63.4021 474.256 60.0425 473.058C56.6829 471.862 53.5938 470.014 50.9534 467.622C48.3125 465.229 46.1727 462.341 44.6563 459.121C43.1399 455.901 42.2773 452.414 42.1176 448.86C41.9163 445.845 42.4007 442.823 43.5344 440.02C44.6687 437.217 46.4227 434.706 48.6659 432.674H22.2023V416.487H97.3176V432.674H92.2847C94.5214 434.709 96.2672 437.222 97.3918 440.025C98.5169 442.828 98.9909 445.849 98.7788 448.86C98.6192 452.4 97.7614 455.873 96.2553 459.082C94.7492 462.29 92.6235 465.172 90.0004 467.562C87.3773 469.952 84.3077 471.803 80.9665 473.01C77.6258 474.217 74.0795 474.757 70.5294 474.597ZM70.5294 458.41C73.0432 458.347 75.4817 457.545 77.5398 456.105C79.5979 454.665 81.1846 452.652 82.0998 450.317C83.0154 447.983 83.2189 445.43 82.6858 442.98C82.1528 440.531 80.9059 438.293 79.1022 436.546C77.2984 434.8 75.0179 433.623 72.5458 433.164C70.0743 432.704 67.5215 432.982 65.2075 433.963C62.8939 434.944 60.9219 436.583 59.5386 438.677C58.1554 440.77 57.4232 443.224 57.4329 445.731C57.3599 447.448 57.6516 449.161 58.2891 450.757C58.9266 452.355 59.8953 453.799 61.1319 454.996C62.3685 456.193 63.8453 457.116 65.4645 457.705C67.0843 458.293 68.8101 458.534 70.5294 458.41Z" fill="white" fill-opacity="0.3"/>
<path d="M59.814 523.858C47.4752 523.858 42.2257 513.067 42.2257 501.628C41.8047 496.963 42.7967 492.279 45.0734 488.182C47.3501 484.084 50.8072 480.762 54.9975 478.644L62.8987 492.564C60.9678 493.115 59.2852 494.311 58.1325 495.951C56.9798 497.592 56.4273 499.577 56.5669 501.575C56.5669 505.405 57.7575 507.348 59.9222 507.348C65.821 507.348 62.6822 481.072 81.2446 481.072C92.934 481.072 98.7787 490.891 98.7787 502.006C98.9686 506.231 98.007 510.429 95.9965 514.152C93.986 517.876 91.0014 520.988 87.3599 523.157L79.9999 509.236C81.3961 508.621 82.5834 507.616 83.419 506.343C84.2546 505.069 84.7022 503.582 84.7081 502.06C84.7081 499.254 83.6257 497.582 81.7316 497.582C75.5622 497.582 79.621 523.858 59.814 523.858Z" fill="white" fill-opacity="0.3"/>
<path d="M97.3179 582.507H43.7414V566.321H48.7743C46.5463 564.481 44.7837 562.145 43.6272 559.506C42.4707 556.862 41.9539 553.986 42.1179 551.105C42.1179 540.314 49.8567 531.088 64.3061 531.088H97.3179V547.274H66.7414C65.4631 547.145 64.1724 547.296 62.958 547.717C61.7442 548.138 60.6359 548.812 59.7094 549.697C58.7834 550.587 58.0615 551.666 57.5934 552.859C57.1258 554.051 56.9234 555.33 57.0002 556.609C57.0002 562.436 60.4638 566.536 67.8238 566.536H97.3179V582.507Z" fill="white" fill-opacity="0.3"/>
<path d="M76.6448 674.231H43.7413V658.045H75.2377C80.6495 658.045 84.0048 655.509 84.0048 650.383C84.0048 645.257 80.2707 642.02 73.9389 642.02H43.7413V625.833H75.2377C80.6495 625.833 84.0048 623.297 84.0048 618.172C84.0048 613.046 80.2707 609.809 73.9389 609.809H43.7413V593.622H97.3177V609.809H92.393C94.5685 611.487 96.2917 613.672 97.4065 616.181C98.5213 618.684 98.9932 621.431 98.7789 624.161C98.9223 626.896 98.3487 629.626 97.1153 632.076C95.882 634.526 94.0306 636.614 91.7436 638.135C94.1334 639.916 96.0319 642.268 97.262 644.977C98.4926 647.68 99.0143 650.658 98.7789 653.62C98.7789 666.246 90.0118 674.231 76.6448 674.231Z" fill="white" fill-opacity="0.3"/>
<path d="M97.6423 687.828C97.6423 694.384 102.973 699.698 109.548 699.698C116.124 699.698 121.454 694.384 121.454 687.828C121.454 681.273 116.124 675.958 109.548 675.958C102.973 675.958 97.6423 681.273 97.6423 687.828Z" fill="white" fill-opacity="0.3"/>
</g>
<defs>
<clipPath id="clip0_342_151">
<rect width="699.637" height="158.024" fill="white" transform="translate(159.012 0.0610352) rotate(90)"/>
</clipPath>
</defs>
</svg>
