<svg width="186" height="35" viewBox="0 0 186 35" fill="none" xmlns="http://www.w3.org/2000/svg">
<path d="M0 32.4995H35V34.9995H0V32.4995ZM31.25 11.2495C31.5815 11.2495 31.8995 11.1178 32.1339 10.8834C32.3683 10.6489 32.5 10.331 32.5 9.99947V6.24947C32.4999 5.99258 32.4206 5.74196 32.273 5.53171C32.1254 5.32147 31.9166 5.16181 31.675 5.07447L17.925 0.0744682C17.6504 -0.0248227 17.3496 -0.0248227 17.075 0.0744682L3.325 5.07447C3.08341 5.16181 2.8746 5.32147 2.72698 5.53171C2.57937 5.74196 2.50011 5.99258 2.5 6.24947V9.99947C2.5 10.331 2.6317 10.6489 2.86612 10.8834C3.10054 11.1178 3.41848 11.2495 3.75 11.2495H5V27.4995H2.5V29.9995H32.5V27.4995H30V11.2495H31.25ZM5 7.12447L17.5 2.57447L30 7.12447V8.74947H5V7.12447ZM20 27.4995H15V11.2495H20V27.4995ZM7.5 11.2495H12.5V27.4995H7.5V11.2495ZM27.5 27.4995H22.5V11.2495H27.5V27.4995Z" fill="#3A49F9"/>
<path d="M54.592 24.9995L51.072 18.8835H49.158V24.9995H46.65V9.70951H51.93C53.1033 9.70951 54.0933 9.91484 54.9 10.3255C55.7213 10.7362 56.33 11.2862 56.726 11.9755C57.1367 12.6648 57.342 13.4348 57.342 14.2855C57.342 15.2828 57.0487 16.1922 56.462 17.0135C55.89 17.8202 55.0027 18.3702 53.8 18.6635L57.584 24.9995H54.592ZM49.158 16.8815H51.93C52.8687 16.8815 53.5727 16.6468 54.042 16.1775C54.526 15.7082 54.768 15.0775 54.768 14.2855C54.768 13.4935 54.5333 12.8775 54.064 12.4375C53.5947 11.9828 52.8833 11.7555 51.93 11.7555H49.158V16.8815ZM62.3264 11.2715C61.8717 11.2715 61.4904 11.1175 61.1824 10.8095C60.8744 10.5015 60.7204 10.1202 60.7204 9.66551C60.7204 9.21084 60.8744 8.82951 61.1824 8.52151C61.4904 8.21351 61.8717 8.05951 62.3264 8.05951C62.7664 8.05951 63.1404 8.21351 63.4484 8.52151C63.7564 8.82951 63.9104 9.21084 63.9104 9.66551C63.9104 10.1202 63.7564 10.5015 63.4484 10.8095C63.1404 11.1175 62.7664 11.2715 62.3264 11.2715ZM63.5584 12.8775V24.9995H61.0504V12.8775H63.5584ZM71.7512 25.1975C70.7978 25.1975 69.9398 25.0288 69.1772 24.6915C68.4292 24.3395 67.8352 23.8702 67.3952 23.2835C66.9552 22.6822 66.7205 22.0148 66.6912 21.2815H69.2872C69.3312 21.7948 69.5732 22.2275 70.0132 22.5795C70.4678 22.9168 71.0325 23.0855 71.7072 23.0855C72.4112 23.0855 72.9538 22.9535 73.3352 22.6895C73.7312 22.4108 73.9292 22.0588 73.9292 21.6335C73.9292 21.1788 73.7092 20.8415 73.2692 20.6215C72.8438 20.4015 72.1618 20.1595 71.2232 19.8955C70.3138 19.6462 69.5732 19.4042 69.0012 19.1695C68.4292 18.9348 67.9305 18.5755 67.5052 18.0915C67.0945 17.6075 66.8892 16.9695 66.8892 16.1775C66.8892 15.5322 67.0798 14.9455 67.4612 14.4175C67.8425 13.8748 68.3852 13.4495 69.0892 13.1415C69.8078 12.8335 70.6292 12.6795 71.5532 12.6795C72.9318 12.6795 74.0392 13.0315 74.8752 13.7355C75.7258 14.4248 76.1805 15.3708 76.2392 16.5735H73.7312C73.6872 16.0308 73.4672 15.5982 73.0712 15.2755C72.6752 14.9528 72.1398 14.7915 71.4652 14.7915C70.8052 14.7915 70.2992 14.9162 69.9472 15.1655C69.5952 15.4148 69.4192 15.7448 69.4192 16.1555C69.4192 16.4782 69.5365 16.7495 69.7712 16.9695C70.0058 17.1895 70.2918 17.3655 70.6292 17.4975C70.9665 17.6148 71.4652 17.7688 72.1252 17.9595C73.0052 18.1942 73.7238 18.4362 74.2812 18.6855C74.8532 18.9202 75.3445 19.2722 75.7552 19.7415C76.1658 20.2108 76.3785 20.8342 76.3932 21.6115C76.3932 22.3008 76.2025 22.9168 75.8212 23.4595C75.4398 24.0022 74.8972 24.4275 74.1932 24.7355C73.5038 25.0435 72.6898 25.1975 71.7512 25.1975ZM90.7131 18.6415C90.7131 19.0962 90.6838 19.5068 90.6251 19.8735H81.3631C81.4365 20.8415 81.7958 21.6188 82.4411 22.2055C83.0865 22.7922 83.8785 23.0855 84.8171 23.0855C86.1665 23.0855 87.1198 22.5208 87.6771 21.3915H90.3831C90.0165 22.5062 89.3491 23.4228 88.3811 24.1415C87.4278 24.8455 86.2398 25.1975 84.8171 25.1975C83.6585 25.1975 82.6171 24.9408 81.6931 24.4275C80.7838 23.8995 80.0651 23.1662 79.5371 22.2275C79.0238 21.2742 78.7671 20.1742 78.7671 18.9275C78.7671 17.6808 79.0165 16.5882 79.5151 15.6495C80.0285 14.6962 80.7398 13.9628 81.6491 13.4495C82.5731 12.9362 83.6291 12.6795 84.8171 12.6795C85.9611 12.6795 86.9805 12.9288 87.8751 13.4275C88.7698 13.9262 89.4665 14.6302 89.9651 15.5395C90.4638 16.4342 90.7131 17.4682 90.7131 18.6415ZM88.0951 17.8495C88.0805 16.9255 87.7505 16.1848 87.1051 15.6275C86.4598 15.0702 85.6605 14.7915 84.7071 14.7915C83.8418 14.7915 83.1011 15.0702 82.4851 15.6275C81.8691 16.1702 81.5025 16.9108 81.3851 17.8495H88.0951ZM103.449 9.55551V12.5695H97.1573V15.8255H101.865V18.7515H97.1573V24.9995H93.3953V9.55551H103.449ZM107.819 11.4475C107.159 11.4475 106.616 11.2568 106.191 10.8755C105.78 10.4795 105.575 9.99551 105.575 9.42351C105.575 8.83684 105.78 8.35284 106.191 7.97151C106.616 7.57551 107.159 7.37751 107.819 7.37751C108.464 7.37751 108.992 7.57551 109.403 7.97151C109.828 8.35284 110.041 8.83684 110.041 9.42351C110.041 9.99551 109.828 10.4795 109.403 10.8755C108.992 11.2568 108.464 11.4475 107.819 11.4475ZM109.689 12.7235V24.9995H105.927V12.7235H109.689ZM120.395 12.5915C121.832 12.5915 122.976 13.0608 123.827 13.9995C124.692 14.9235 125.125 16.1995 125.125 17.8275V24.9995H121.385V18.3335C121.385 17.5122 121.172 16.8742 120.747 16.4195C120.321 15.9648 119.749 15.7375 119.031 15.7375C118.312 15.7375 117.74 15.9648 117.315 16.4195C116.889 16.8742 116.677 17.5122 116.677 18.3335V24.9995H112.915V12.7235H116.677V14.3515C117.058 13.8088 117.571 13.3835 118.217 13.0755C118.862 12.7528 119.588 12.5915 120.395 12.5915ZM127.491 18.8395C127.491 17.5782 127.726 16.4708 128.195 15.5175C128.679 14.5642 129.332 13.8308 130.153 13.3175C130.974 12.8042 131.891 12.5475 132.903 12.5475C133.768 12.5475 134.524 12.7235 135.169 13.0755C135.829 13.4275 136.335 13.8895 136.687 14.4615V12.7235H140.449V24.9995H136.687V23.2615C136.32 23.8335 135.807 24.2955 135.147 24.6475C134.502 24.9995 133.746 25.1755 132.881 25.1755C131.884 25.1755 130.974 24.9188 130.153 24.4055C129.332 23.8775 128.679 23.1368 128.195 22.1835C127.726 21.2155 127.491 20.1008 127.491 18.8395ZM136.687 18.8615C136.687 17.9228 136.423 17.1822 135.895 16.6395C135.382 16.0968 134.751 15.8255 134.003 15.8255C133.255 15.8255 132.617 16.0968 132.089 16.6395C131.576 17.1675 131.319 17.9008 131.319 18.8395C131.319 19.7782 131.576 20.5262 132.089 21.0835C132.617 21.6262 133.255 21.8975 134.003 21.8975C134.751 21.8975 135.382 21.6262 135.895 21.0835C136.423 20.5408 136.687 19.8002 136.687 18.8615ZM151.151 12.5915C152.588 12.5915 153.732 13.0608 154.583 13.9995C155.448 14.9235 155.881 16.1995 155.881 17.8275V24.9995H152.141V18.3335C152.141 17.5122 151.928 16.8742 151.503 16.4195C151.077 15.9648 150.505 15.7375 149.787 15.7375C149.068 15.7375 148.496 15.9648 148.071 16.4195C147.645 16.8742 147.433 17.5122 147.433 18.3335V24.9995H143.671V12.7235H147.433V14.3515C147.814 13.8088 148.327 13.3835 148.973 13.0755C149.618 12.7528 150.344 12.5915 151.151 12.5915ZM158.247 18.8615C158.247 17.5855 158.504 16.4708 159.017 15.5175C159.545 14.5642 160.271 13.8308 161.195 13.3175C162.134 12.8042 163.204 12.5475 164.407 12.5475C165.947 12.5475 167.23 12.9508 168.257 13.7575C169.298 14.5642 169.98 15.7008 170.303 17.1675H166.299C165.962 16.2288 165.309 15.7595 164.341 15.7595C163.652 15.7595 163.102 16.0308 162.691 16.5735C162.28 17.1015 162.075 17.8642 162.075 18.8615C162.075 19.8588 162.28 20.6288 162.691 21.1715C163.102 21.6995 163.652 21.9635 164.341 21.9635C165.309 21.9635 165.962 21.4942 166.299 20.5555H170.303C169.98 21.9928 169.298 23.1222 168.257 23.9435C167.216 24.7648 165.932 25.1755 164.407 25.1755C163.204 25.1755 162.134 24.9188 161.195 24.4055C160.271 23.8922 159.545 23.1588 159.017 22.2055C158.504 21.2522 158.247 20.1375 158.247 18.8615ZM184.387 18.6635C184.387 19.0155 184.365 19.3822 184.321 19.7635H175.807C175.866 20.5262 176.108 21.1128 176.533 21.5235C176.973 21.9195 177.509 22.1175 178.139 22.1175C179.078 22.1175 179.731 21.7215 180.097 20.9295H184.101C183.896 21.7362 183.522 22.4622 182.979 23.1075C182.451 23.7528 181.784 24.2588 180.977 24.6255C180.171 24.9922 179.269 25.1755 178.271 25.1755C177.069 25.1755 175.998 24.9188 175.059 24.4055C174.121 23.8922 173.387 23.1588 172.859 22.2055C172.331 21.2522 172.067 20.1375 172.067 18.8615C172.067 17.5855 172.324 16.4708 172.837 15.5175C173.365 14.5642 174.099 13.8308 175.037 13.3175C175.976 12.8042 177.054 12.5475 178.271 12.5475C179.459 12.5475 180.515 12.7968 181.439 13.2955C182.363 13.7942 183.082 14.5055 183.595 15.4295C184.123 16.3535 184.387 17.4315 184.387 18.6635ZM180.537 17.6735C180.537 17.0282 180.317 16.5148 179.877 16.1335C179.437 15.7522 178.887 15.5615 178.227 15.5615C177.597 15.5615 177.061 15.7448 176.621 16.1115C176.196 16.4782 175.932 16.9988 175.829 17.6735H180.537Z" fill="#3A49F9"/>
</svg>
