<svg width="654" height="424" viewBox="0 0 654 424" fill="none" xmlns="http://www.w3.org/2000/svg">
<g clip-path="url(#clip0_323_3373)">
<g clip-path="url(#clip1_323_3373)">
<rect width="610" height="350" rx="30" fill="url(#paint0_linear_323_3373)"/>
<g clip-path="url(#clip2_323_3373)">
<mask id="mask0_323_3373" style="mask-type:alpha" maskUnits="userSpaceOnUse" x="0" y="0" width="610" height="351">
<rect width="609.616" height="350.118" rx="30" fill="#ED713C"/>
</mask>
<g mask="url(#mask0_323_3373)">
<path opacity="0.08" fill-rule="evenodd" clip-rule="evenodd" d="M261.911 0H610V157.306C594.419 158.972 578.456 159.836 562.201 159.836C418.211 159.836 297.104 92.0137 261.911 0Z" fill="black"/>
<path opacity="0.1" fill-rule="evenodd" clip-rule="evenodd" d="M347.751 350.24L-0.0106917 350.24L-0.0106779 192.772C15.4517 191.132 31.2895 190.281 47.4144 190.281C191.468 190.281 312.618 258.164 347.751 350.24Z" fill="black"/>
</g>
</g>
<path d="M508.772 287.764C508.772 286.149 509.042 284.889 509.584 283.984C510.134 283.069 511.077 282.612 512.412 282.612C513.746 282.612 514.684 283.069 515.226 283.984C515.776 284.889 516.052 286.149 516.052 287.764C516.052 289.397 515.776 290.676 515.226 291.6C514.684 292.515 513.746 292.972 512.412 292.972C511.077 292.972 510.134 292.515 509.584 291.6C509.042 290.676 508.772 289.397 508.772 287.764ZM514.484 287.764C514.484 287.008 514.432 286.369 514.33 285.846C514.236 285.323 514.04 284.899 513.742 284.572C513.443 284.236 513 284.068 512.412 284.068C511.824 284.068 511.38 284.236 511.082 284.572C510.783 284.899 510.582 285.323 510.48 285.846C510.386 286.369 510.34 287.008 510.34 287.764C510.34 288.548 510.386 289.206 510.48 289.738C510.573 290.27 510.769 290.699 511.068 291.026C511.376 291.353 511.824 291.516 512.412 291.516C513 291.516 513.443 291.353 513.742 291.026C514.05 290.699 514.25 290.27 514.344 289.738C514.437 289.206 514.484 288.548 514.484 287.764ZM520.228 290.228C520.322 290.695 520.522 291.049 520.83 291.292C521.138 291.535 521.554 291.656 522.076 291.656C522.739 291.656 523.224 291.395 523.532 290.872C523.84 290.349 523.994 289.458 523.994 288.198C523.77 288.515 523.453 288.763 523.042 288.94C522.641 289.108 522.202 289.192 521.726 289.192C521.12 289.192 520.569 289.071 520.074 288.828C519.58 288.576 519.188 288.207 518.898 287.722C518.618 287.227 518.478 286.63 518.478 285.93C518.478 284.903 518.777 284.087 519.374 283.48C519.981 282.864 520.812 282.556 521.866 282.556C523.136 282.556 524.036 282.981 524.568 283.83C525.11 284.67 525.38 285.963 525.38 287.708C525.38 288.912 525.278 289.897 525.072 290.662C524.876 291.427 524.531 292.006 524.036 292.398C523.542 292.79 522.856 292.986 521.978 292.986C520.98 292.986 520.21 292.725 519.668 292.202C519.127 291.679 518.824 291.021 518.758 290.228H520.228ZM522.006 287.848C522.566 287.848 523.005 287.675 523.322 287.33C523.649 286.975 523.812 286.509 523.812 285.93C523.812 285.286 523.64 284.787 523.294 284.432C522.958 284.068 522.496 283.886 521.908 283.886C521.32 283.886 520.854 284.073 520.508 284.446C520.172 284.81 520.004 285.291 520.004 285.888C520.004 286.457 520.168 286.929 520.494 287.302C520.83 287.666 521.334 287.848 522.006 287.848ZM533.017 279.784L529.209 295.45H527.641L531.435 279.784H533.017ZM536.201 290.83C537.097 290.055 537.801 289.421 538.315 288.926C538.837 288.422 539.271 287.899 539.617 287.358C539.962 286.817 540.135 286.275 540.135 285.734C540.135 285.174 539.999 284.735 539.729 284.418C539.467 284.101 539.052 283.942 538.483 283.942C537.932 283.942 537.503 284.119 537.195 284.474C536.896 284.819 536.737 285.286 536.719 285.874H535.179C535.207 284.81 535.524 283.998 536.131 283.438C536.747 282.869 537.526 282.584 538.469 282.584C539.486 282.584 540.279 282.864 540.849 283.424C541.427 283.984 541.717 284.731 541.717 285.664C541.717 286.336 541.544 286.985 541.199 287.61C540.863 288.226 540.457 288.781 539.981 289.276C539.514 289.761 538.917 290.326 538.189 290.97L537.559 291.53H541.997V292.86H535.193V291.698L536.201 290.83ZM550.479 284.166H545.789V286.952C545.985 286.691 546.274 286.471 546.657 286.294C547.049 286.117 547.464 286.028 547.903 286.028C548.687 286.028 549.321 286.196 549.807 286.532C550.301 286.868 550.651 287.293 550.857 287.806C551.071 288.319 551.179 288.861 551.179 289.43C551.179 290.121 551.043 290.737 550.773 291.278C550.511 291.81 550.115 292.23 549.583 292.538C549.06 292.846 548.416 293 547.651 293C546.633 293 545.817 292.748 545.201 292.244C544.585 291.74 544.216 291.073 544.095 290.242H545.649C545.751 290.681 545.98 291.031 546.335 291.292C546.689 291.544 547.133 291.67 547.665 291.67C548.327 291.67 548.822 291.469 549.149 291.068C549.485 290.667 549.653 290.135 549.653 289.472C549.653 288.8 549.485 288.287 549.149 287.932C548.813 287.568 548.318 287.386 547.665 287.386C547.207 287.386 546.82 287.503 546.503 287.736C546.195 287.96 545.971 288.268 545.831 288.66H544.319V282.766H550.479V284.166Z" fill="white"/>
<path opacity="0.9" d="M65.42 284.166H60.73V286.952C60.926 286.691 61.2153 286.471 61.598 286.294C61.99 286.117 62.4053 286.028 62.844 286.028C63.628 286.028 64.2627 286.196 64.748 286.532C65.2427 286.868 65.5927 287.293 65.798 287.806C66.0127 288.319 66.12 288.861 66.12 289.43C66.12 290.121 65.9847 290.737 65.714 291.278C65.4527 291.81 65.056 292.23 64.524 292.538C64.0013 292.846 63.3573 293 62.592 293C61.5747 293 60.758 292.748 60.142 292.244C59.526 291.74 59.1573 291.073 59.036 290.242H60.59C60.6927 290.681 60.9213 291.031 61.276 291.292C61.6307 291.544 62.074 291.67 62.606 291.67C63.2687 291.67 63.7633 291.469 64.09 291.068C64.426 290.667 64.594 290.135 64.594 289.472C64.594 288.8 64.426 288.287 64.09 287.932C63.754 287.568 63.2593 287.386 62.606 287.386C62.1487 287.386 61.7613 287.503 61.444 287.736C61.136 287.96 60.912 288.268 60.772 288.66H59.26V282.766H65.42V284.166ZM69.1634 290.83C70.0594 290.055 70.7641 289.421 71.2774 288.926C71.8001 288.422 72.2341 287.899 72.5794 287.358C72.9247 286.817 73.0974 286.275 73.0974 285.734C73.0974 285.174 72.9621 284.735 72.6914 284.418C72.4301 284.101 72.0147 283.942 71.4454 283.942C70.8947 283.942 70.4654 284.119 70.1574 284.474C69.8587 284.819 69.7001 285.286 69.6814 285.874H68.1414C68.1694 284.81 68.4867 283.998 69.0934 283.438C69.7094 282.869 70.4887 282.584 71.4314 282.584C72.4487 282.584 73.2421 282.864 73.8114 283.424C74.3901 283.984 74.6794 284.731 74.6794 285.664C74.6794 286.336 74.5067 286.985 74.1614 287.61C73.8254 288.226 73.4194 288.781 72.9434 289.276C72.4767 289.761 71.8794 290.326 71.1514 290.97L70.5214 291.53H74.9594V292.86H68.1554V291.698L69.1634 290.83ZM78.5835 287.666C77.6128 287.181 77.1275 286.415 77.1275 285.37C77.1275 284.866 77.2535 284.404 77.5055 283.984C77.7575 283.564 78.1355 283.233 78.6395 282.99C79.1435 282.738 79.7595 282.612 80.4875 282.612C81.2062 282.612 81.8175 282.738 82.3215 282.99C82.8348 283.233 83.2175 283.564 83.4695 283.984C83.7215 284.404 83.8475 284.866 83.8475 285.37C83.8475 285.893 83.7122 286.355 83.4415 286.756C83.1802 287.148 82.8302 287.451 82.3915 287.666C82.9235 287.862 83.3435 288.184 83.6515 288.632C83.9595 289.071 84.1135 289.589 84.1135 290.186C84.1135 290.793 83.9595 291.329 83.6515 291.796C83.3435 292.263 82.9142 292.622 82.3635 292.874C81.8128 293.126 81.1875 293.252 80.4875 293.252C79.7875 293.252 79.1622 293.126 78.6115 292.874C78.0702 292.622 77.6455 292.263 77.3375 291.796C77.0295 291.329 76.8755 290.793 76.8755 290.186C76.8755 289.579 77.0295 289.057 77.3375 288.618C77.6455 288.179 78.0608 287.862 78.5835 287.666ZM82.3215 285.566C82.3215 285.043 82.1582 284.642 81.8315 284.362C81.5048 284.082 81.0568 283.942 80.4875 283.942C79.9275 283.942 79.4842 284.082 79.1575 284.362C78.8308 284.642 78.6675 285.048 78.6675 285.58C78.6675 286.047 78.8355 286.429 79.1715 286.728C79.5168 287.017 79.9555 287.162 80.4875 287.162C81.0195 287.162 81.4582 287.013 81.8035 286.714C82.1488 286.415 82.3215 286.033 82.3215 285.566ZM80.4875 288.366C79.8715 288.366 79.3675 288.52 78.9755 288.828C78.5928 289.127 78.4015 289.561 78.4015 290.13C78.4015 290.662 78.5882 291.096 78.9615 291.432C79.3348 291.759 79.8435 291.922 80.4875 291.922C81.1222 291.922 81.6215 291.754 81.9855 291.418C82.3588 291.082 82.5455 290.653 82.5455 290.13C82.5455 289.57 82.3542 289.136 81.9715 288.828C81.5982 288.52 81.1035 288.366 80.4875 288.366ZM87.1712 290.83C88.0672 290.055 88.7719 289.421 89.2852 288.926C89.8079 288.422 90.2419 287.899 90.5872 287.358C90.9326 286.817 91.1052 286.275 91.1052 285.734C91.1052 285.174 90.9699 284.735 90.6992 284.418C90.4379 284.101 90.0226 283.942 89.4532 283.942C88.9026 283.942 88.4732 284.119 88.1652 284.474C87.8666 284.819 87.7079 285.286 87.6892 285.874H86.1492C86.1772 284.81 86.4946 283.998 87.1012 283.438C87.7172 282.869 88.4966 282.584 89.4392 282.584C90.4566 282.584 91.2499 282.864 91.8192 283.424C92.3979 283.984 92.6872 284.731 92.6872 285.664C92.6872 286.336 92.5146 286.985 92.1692 287.61C91.8332 288.226 91.4272 288.781 90.9512 289.276C90.4846 289.761 89.8872 290.326 89.1592 290.97L88.5292 291.53H92.9672V292.86H86.1632V291.698L87.1712 290.83ZM98.978 285.314C99.034 284.446 99.3653 283.769 99.972 283.284C100.588 282.799 101.372 282.556 102.324 282.556C102.977 282.556 103.542 282.673 104.018 282.906C104.494 283.139 104.853 283.457 105.096 283.858C105.339 284.259 105.46 284.712 105.46 285.216C105.46 285.795 105.306 286.289 104.998 286.7C104.69 287.111 104.321 287.386 103.892 287.526V287.582C104.443 287.75 104.872 288.058 105.18 288.506C105.488 288.945 105.642 289.509 105.642 290.2C105.642 290.751 105.516 291.241 105.264 291.67C105.012 292.099 104.639 292.44 104.144 292.692C103.649 292.935 103.057 293.056 102.366 293.056C101.358 293.056 100.527 292.799 99.874 292.286C99.23 291.763 98.8847 291.017 98.838 290.046H100.378C100.415 290.541 100.607 290.947 100.952 291.264C101.297 291.572 101.764 291.726 102.352 291.726C102.921 291.726 103.36 291.572 103.668 291.264C103.976 290.947 104.13 290.541 104.13 290.046C104.13 289.393 103.92 288.931 103.5 288.66C103.089 288.38 102.455 288.24 101.596 288.24H101.232V286.924H101.61C102.366 286.915 102.94 286.789 103.332 286.546C103.733 286.303 103.934 285.921 103.934 285.398C103.934 284.95 103.789 284.595 103.5 284.334C103.211 284.063 102.8 283.928 102.268 283.928C101.745 283.928 101.339 284.063 101.05 284.334C100.761 284.595 100.588 284.922 100.532 285.314H98.978ZM107.623 290.872V289.668L112.327 282.92H114.259V289.486H115.561V290.872H114.259V293H112.691V290.872H107.623ZM112.761 284.544L109.457 289.486H112.761V284.544ZM123.963 284.166H119.273V286.952C119.469 286.691 119.758 286.471 120.141 286.294C120.533 286.117 120.948 286.028 121.387 286.028C122.171 286.028 122.806 286.196 123.291 286.532C123.786 286.868 124.136 287.293 124.341 287.806C124.556 288.319 124.663 288.861 124.663 289.43C124.663 290.121 124.528 290.737 124.257 291.278C123.996 291.81 123.599 292.23 123.067 292.538C122.544 292.846 121.9 293 121.135 293C120.118 293 119.301 292.748 118.685 292.244C118.069 291.74 117.7 291.073 117.579 290.242H119.133C119.236 290.681 119.464 291.031 119.819 291.292C120.174 291.544 120.617 291.67 121.149 291.67C121.812 291.67 122.306 291.469 122.633 291.068C122.969 290.667 123.137 290.135 123.137 289.472C123.137 288.8 122.969 288.287 122.633 287.932C122.297 287.568 121.802 287.386 121.149 287.386C120.692 287.386 120.304 287.503 119.987 287.736C119.679 287.96 119.455 288.268 119.315 288.66H117.803V282.766H123.963V284.166ZM132.312 285.16C132.21 284.731 132.023 284.409 131.752 284.194C131.482 283.979 131.104 283.872 130.618 283.872C129.881 283.872 129.33 284.157 128.966 284.726C128.602 285.286 128.411 286.219 128.392 287.526C128.635 287.115 128.99 286.798 129.456 286.574C129.923 286.35 130.427 286.238 130.968 286.238C131.584 286.238 132.126 286.373 132.592 286.644C133.068 286.905 133.437 287.288 133.698 287.792C133.969 288.296 134.104 288.898 134.104 289.598C134.104 290.251 133.974 290.835 133.712 291.348C133.46 291.861 133.082 292.267 132.578 292.566C132.074 292.855 131.468 293 130.758 293C129.797 293 129.041 292.79 128.49 292.37C127.949 291.941 127.566 291.339 127.342 290.564C127.128 289.789 127.02 288.823 127.02 287.666C127.02 284.25 128.224 282.542 130.632 282.542C131.566 282.542 132.298 282.794 132.83 283.298C133.372 283.802 133.689 284.423 133.782 285.16H132.312ZM130.618 287.582C130.049 287.582 129.564 287.755 129.162 288.1C128.77 288.436 128.574 288.926 128.574 289.57C128.574 290.214 128.756 290.727 129.12 291.11C129.494 291.483 130.012 291.67 130.674 291.67C131.262 291.67 131.724 291.488 132.06 291.124C132.406 290.76 132.578 290.275 132.578 289.668C132.578 289.033 132.41 288.529 132.074 288.156C131.748 287.773 131.262 287.582 130.618 287.582ZM146.912 284.026L143.02 293H141.41L145.344 284.194H140.164V282.836H146.912V284.026ZM150.5 287.666C149.529 287.181 149.044 286.415 149.044 285.37C149.044 284.866 149.17 284.404 149.422 283.984C149.674 283.564 150.052 283.233 150.556 282.99C151.06 282.738 151.676 282.612 152.404 282.612C153.122 282.612 153.734 282.738 154.238 282.99C154.751 283.233 155.133 283.564 155.386 283.984C155.638 284.404 155.764 284.866 155.764 285.37C155.764 285.893 155.628 286.355 155.358 286.756C155.096 287.148 154.746 287.451 154.308 287.666C154.84 287.862 155.26 288.184 155.568 288.632C155.876 289.071 156.03 289.589 156.03 290.186C156.03 290.793 155.876 291.329 155.568 291.796C155.26 292.263 154.83 292.622 154.28 292.874C153.729 293.126 153.104 293.252 152.404 293.252C151.704 293.252 151.078 293.126 150.528 292.874C149.986 292.622 149.562 292.263 149.254 291.796C148.946 291.329 148.792 290.793 148.792 290.186C148.792 289.579 148.946 289.057 149.254 288.618C149.562 288.179 149.977 287.862 150.5 287.666ZM154.238 285.566C154.238 285.043 154.074 284.642 153.748 284.362C153.421 284.082 152.973 283.942 152.404 283.942C151.844 283.942 151.4 284.082 151.074 284.362C150.747 284.642 150.584 285.048 150.584 285.58C150.584 286.047 150.752 286.429 151.088 286.728C151.433 287.017 151.872 287.162 152.404 287.162C152.936 287.162 153.374 287.013 153.72 286.714C154.065 286.415 154.238 286.033 154.238 285.566ZM152.404 288.366C151.788 288.366 151.284 288.52 150.892 288.828C150.509 289.127 150.318 289.561 150.318 290.13C150.318 290.662 150.504 291.096 150.878 291.432C151.251 291.759 151.76 291.922 152.404 291.922C153.038 291.922 153.538 291.754 153.902 291.418C154.275 291.082 154.462 290.653 154.462 290.13C154.462 289.57 154.27 289.136 153.888 288.828C153.514 288.52 153.02 288.366 152.404 288.366ZM160.193 290.228C160.287 290.695 160.487 291.049 160.795 291.292C161.103 291.535 161.519 291.656 162.041 291.656C162.704 291.656 163.189 291.395 163.497 290.872C163.805 290.349 163.959 289.458 163.959 288.198C163.735 288.515 163.418 288.763 163.007 288.94C162.606 289.108 162.167 289.192 161.691 289.192C161.085 289.192 160.534 289.071 160.039 288.828C159.545 288.576 159.153 288.207 158.863 287.722C158.583 287.227 158.443 286.63 158.443 285.93C158.443 284.903 158.742 284.087 159.339 283.48C159.946 282.864 160.777 282.556 161.831 282.556C163.101 282.556 164.001 282.981 164.533 283.83C165.075 284.67 165.345 285.963 165.345 287.708C165.345 288.912 165.243 289.897 165.037 290.662C164.841 291.427 164.496 292.006 164.001 292.398C163.507 292.79 162.821 292.986 161.943 292.986C160.945 292.986 160.175 292.725 159.633 292.202C159.092 291.679 158.789 291.021 158.723 290.228H160.193ZM161.971 287.848C162.531 287.848 162.97 287.675 163.287 287.33C163.614 286.975 163.777 286.509 163.777 285.93C163.777 285.286 163.605 284.787 163.259 284.432C162.923 284.068 162.461 283.886 161.873 283.886C161.285 283.886 160.819 284.073 160.473 284.446C160.137 284.81 159.969 285.291 159.969 285.888C159.969 286.457 160.133 286.929 160.459 287.302C160.795 287.666 161.299 287.848 161.971 287.848ZM167.592 287.764C167.592 286.149 167.863 284.889 168.404 283.984C168.955 283.069 169.897 282.612 171.232 282.612C172.567 282.612 173.505 283.069 174.046 283.984C174.597 284.889 174.872 286.149 174.872 287.764C174.872 289.397 174.597 290.676 174.046 291.6C173.505 292.515 172.567 292.972 171.232 292.972C169.897 292.972 168.955 292.515 168.404 291.6C167.863 290.676 167.592 289.397 167.592 287.764ZM173.304 287.764C173.304 287.008 173.253 286.369 173.15 285.846C173.057 285.323 172.861 284.899 172.562 284.572C172.263 284.236 171.82 284.068 171.232 284.068C170.644 284.068 170.201 284.236 169.902 284.572C169.603 284.899 169.403 285.323 169.3 285.846C169.207 286.369 169.16 287.008 169.16 287.764C169.16 288.548 169.207 289.206 169.3 289.738C169.393 290.27 169.589 290.699 169.888 291.026C170.196 291.353 170.644 291.516 171.232 291.516C171.82 291.516 172.263 291.353 172.562 291.026C172.87 290.699 173.071 290.27 173.164 289.738C173.257 289.206 173.304 288.548 173.304 287.764ZM180.987 284.25V282.794H183.899V293H182.289V284.25H180.987ZM187.474 290.83C188.37 290.055 189.075 289.421 189.588 288.926C190.111 288.422 190.545 287.899 190.89 287.358C191.235 286.817 191.408 286.275 191.408 285.734C191.408 285.174 191.273 284.735 191.002 284.418C190.741 284.101 190.325 283.942 189.756 283.942C189.205 283.942 188.776 284.119 188.468 284.474C188.169 284.819 188.011 285.286 187.992 285.874H186.452C186.48 284.81 186.797 283.998 187.404 283.438C188.02 282.869 188.799 282.584 189.742 282.584C190.759 282.584 191.553 282.864 192.122 283.424C192.701 283.984 192.99 284.731 192.99 285.664C192.99 286.336 192.817 286.985 192.472 287.61C192.136 288.226 191.73 288.781 191.254 289.276C190.787 289.761 190.19 290.326 189.462 290.97L188.832 291.53H193.27V292.86H186.466V291.698L187.474 290.83ZM196.894 287.666C195.923 287.181 195.438 286.415 195.438 285.37C195.438 284.866 195.564 284.404 195.816 283.984C196.068 283.564 196.446 283.233 196.95 282.99C197.454 282.738 198.07 282.612 198.798 282.612C199.517 282.612 200.128 282.738 200.632 282.99C201.145 283.233 201.528 283.564 201.78 283.984C202.032 284.404 202.158 284.866 202.158 285.37C202.158 285.893 202.023 286.355 201.752 286.756C201.491 287.148 201.141 287.451 200.702 287.666C201.234 287.862 201.654 288.184 201.962 288.632C202.27 289.071 202.424 289.589 202.424 290.186C202.424 290.793 202.27 291.329 201.962 291.796C201.654 292.263 201.225 292.622 200.674 292.874C200.123 293.126 199.498 293.252 198.798 293.252C198.098 293.252 197.473 293.126 196.922 292.874C196.381 292.622 195.956 292.263 195.648 291.796C195.34 291.329 195.186 290.793 195.186 290.186C195.186 289.579 195.34 289.057 195.648 288.618C195.956 288.179 196.371 287.862 196.894 287.666ZM200.632 285.566C200.632 285.043 200.469 284.642 200.142 284.362C199.815 284.082 199.367 283.942 198.798 283.942C198.238 283.942 197.795 284.082 197.468 284.362C197.141 284.642 196.978 285.048 196.978 285.58C196.978 286.047 197.146 286.429 197.482 286.728C197.827 287.017 198.266 287.162 198.798 287.162C199.33 287.162 199.769 287.013 200.114 286.714C200.459 286.415 200.632 286.033 200.632 285.566ZM198.798 288.366C198.182 288.366 197.678 288.52 197.286 288.828C196.903 289.127 196.712 289.561 196.712 290.13C196.712 290.662 196.899 291.096 197.272 291.432C197.645 291.759 198.154 291.922 198.798 291.922C199.433 291.922 199.932 291.754 200.296 291.418C200.669 291.082 200.856 290.653 200.856 290.13C200.856 289.57 200.665 289.136 200.282 288.828C199.909 288.52 199.414 288.366 198.798 288.366ZM206.588 290.228C206.681 290.695 206.882 291.049 207.19 291.292C207.498 291.535 207.913 291.656 208.436 291.656C209.098 291.656 209.584 291.395 209.892 290.872C210.2 290.349 210.354 289.458 210.354 288.198C210.13 288.515 209.812 288.763 209.402 288.94C209 289.108 208.562 289.192 208.086 289.192C207.479 289.192 206.928 289.071 206.434 288.828C205.939 288.576 205.547 288.207 205.258 287.722C204.978 287.227 204.838 286.63 204.838 285.93C204.838 284.903 205.136 284.087 205.734 283.48C206.34 282.864 207.171 282.556 208.226 282.556C209.495 282.556 210.396 282.981 210.928 283.83C211.469 284.67 211.74 285.963 211.74 287.708C211.74 288.912 211.637 289.897 211.432 290.662C211.236 291.427 210.89 292.006 210.396 292.398C209.901 292.79 209.215 292.986 208.338 292.986C207.339 292.986 206.569 292.725 206.028 292.202C205.486 291.679 205.183 291.021 205.118 290.228H206.588ZM208.366 287.848C208.926 287.848 209.364 287.675 209.682 287.33C210.008 286.975 210.172 286.509 210.172 285.93C210.172 285.286 209.999 284.787 209.654 284.432C209.318 284.068 208.856 283.886 208.268 283.886C207.68 283.886 207.213 284.073 206.868 284.446C206.532 284.81 206.364 285.291 206.364 285.888C206.364 286.457 206.527 286.929 206.854 287.302C207.19 287.666 207.694 287.848 208.366 287.848Z" fill="white"/>
<path d="M496.24 53.2297H519.787V94.83H496.24V53.2297Z" fill="#FF5F00"/>
<path d="M480.318 115.769V111.359C480.318 109.668 479.271 108.566 477.477 108.566C476.58 108.566 475.608 108.86 474.935 109.816C474.412 109.007 473.665 108.566 472.543 108.566C471.796 108.566 471.048 108.787 470.45 109.595V108.713H468.88V115.769H470.45V111.873C470.45 110.624 471.123 110.036 472.17 110.036C473.216 110.036 473.74 110.698 473.74 111.873V115.769H475.309V111.873C475.309 110.624 476.057 110.036 477.028 110.036C478.075 110.036 478.598 110.698 478.598 111.873V115.769H480.318V115.769ZM503.566 108.713H501.024V106.582H499.455V108.713H498.034V110.109H499.454V113.344C499.454 114.961 500.127 115.916 501.921 115.916C502.594 115.916 503.341 115.696 503.865 115.402L503.416 114.079C502.968 114.372 502.445 114.446 502.071 114.446C501.323 114.446 501.024 114.005 501.024 113.27V110.109H503.566V108.713V108.713ZM516.872 108.566C515.975 108.566 515.377 109.007 515.003 109.595V108.713H513.433V115.769H515.003V111.8C515.003 110.624 515.526 109.963 516.498 109.963C516.797 109.963 517.171 110.036 517.47 110.11L517.918 108.64C517.619 108.566 517.171 108.566 516.872 108.566V108.566ZM496.763 109.301C496.016 108.787 494.969 108.566 493.848 108.566C492.054 108.566 490.858 109.448 490.858 110.845C490.858 112.021 491.755 112.682 493.325 112.903L494.072 112.976C494.895 113.123 495.343 113.344 495.343 113.711C495.343 114.225 494.745 114.593 493.698 114.593C492.652 114.593 491.83 114.225 491.306 113.858L490.559 115.034C491.381 115.622 492.502 115.916 493.623 115.916C495.717 115.916 496.913 114.961 496.913 113.638C496.913 112.388 495.941 111.726 494.446 111.506L493.698 111.433C493.025 111.359 492.502 111.212 492.502 110.771C492.502 110.257 493.025 109.963 493.848 109.963C494.745 109.963 495.642 110.33 496.09 110.551L496.763 109.301V109.301ZM538.476 108.566C537.578 108.566 536.98 109.007 536.607 109.595V108.713H535.037V115.769H536.607V111.8C536.607 110.624 537.13 109.963 538.101 109.963C538.401 109.963 538.775 110.036 539.074 110.11L539.522 108.64C539.223 108.566 538.775 108.566 538.476 108.566V108.566ZM518.442 112.241C518.442 114.372 519.937 115.916 522.254 115.916C523.301 115.916 524.048 115.696 524.796 115.108L524.048 113.858C523.45 114.299 522.852 114.519 522.179 114.519C520.908 114.519 520.012 113.638 520.012 112.241C520.012 110.918 520.908 110.036 522.179 109.963C522.852 109.963 523.45 110.183 524.048 110.624L524.796 109.375C524.048 108.787 523.301 108.566 522.254 108.566C519.937 108.566 518.442 110.11 518.442 112.241ZM532.944 112.241V108.713H531.374V109.595C530.851 108.934 530.103 108.566 529.131 108.566C527.113 108.566 525.543 110.11 525.543 112.241C525.543 114.372 527.113 115.916 529.131 115.916C530.178 115.916 530.926 115.549 531.374 114.887V115.769H532.944V112.241V112.241ZM527.188 112.241C527.188 110.992 528.01 109.963 529.355 109.963C530.626 109.963 531.524 110.918 531.524 112.241C531.524 113.491 530.626 114.519 529.355 114.519C528.01 114.446 527.188 113.491 527.188 112.241V112.241ZM508.425 108.566C506.332 108.566 504.836 110.036 504.836 112.241C504.836 114.446 506.331 115.916 508.499 115.916C509.546 115.916 510.593 115.622 511.415 114.961L510.667 113.858C510.069 114.299 509.322 114.593 508.574 114.593C507.603 114.593 506.631 114.152 506.406 112.902H511.714V112.315C511.789 110.036 510.443 108.566 508.425 108.566H508.425ZM508.425 109.889C509.396 109.889 510.07 110.477 510.219 111.58H506.481C506.631 110.624 507.304 109.889 508.425 109.889ZM547.371 112.241V105.92H545.801V109.595C545.278 108.934 544.53 108.566 543.559 108.566C541.54 108.566 539.971 110.11 539.971 112.241C539.971 114.372 541.54 115.916 543.559 115.916C544.605 115.916 545.353 115.549 545.801 114.887V115.769H547.371V112.241V112.241ZM541.615 112.241C541.615 110.992 542.437 109.963 543.783 109.963C545.054 109.963 545.951 110.918 545.951 112.241C545.951 113.491 545.054 114.519 543.783 114.519C542.437 114.446 541.615 113.491 541.615 112.241V112.241ZM489.138 112.241V108.713H487.569V109.595C487.045 108.934 486.298 108.566 485.326 108.566C483.308 108.566 481.738 110.11 481.738 112.241C481.738 114.372 483.308 115.916 485.326 115.916C486.373 115.916 487.12 115.549 487.569 114.887V115.769H489.138V112.241V112.241ZM483.308 112.241C483.308 110.992 484.13 109.963 485.475 109.963C486.746 109.963 487.643 110.918 487.643 112.241C487.643 113.491 486.746 114.519 485.475 114.519C484.13 114.446 483.308 113.491 483.308 112.241V112.241Z" fill="white"/>
<path d="M497.735 74.03C497.735 65.5777 501.771 58.0807 507.975 53.2296C503.416 49.7018 497.66 47.5704 491.381 47.5704C476.504 47.5704 464.469 59.4035 464.469 74.03C464.469 88.6561 476.504 100.49 491.38 100.49C497.66 100.49 503.415 98.3582 507.975 94.8299C501.771 90.0526 497.735 82.4822 497.735 74.03V74.03Z" fill="#EB001B"/>
<path d="M551.556 74.03C551.556 88.6561 539.521 100.49 524.645 100.49C518.366 100.49 512.61 98.3582 508.05 94.83C514.329 89.9793 518.291 82.4823 518.291 74.03C518.291 65.5778 514.254 58.0807 508.05 53.2297C512.609 49.7018 518.366 47.5704 524.645 47.5704C539.521 47.5704 551.556 59.4772 551.556 74.03H551.556Z" fill="#F79E1B"/>
<path d="M73.232 124.456C73.232 125.389 72.9987 126.267 72.532 127.088C72.084 127.909 71.412 128.6 70.516 129.16C69.6387 129.72 68.5933 130.056 67.38 130.168V132.436H65.56V130.168C63.8053 130 62.3867 129.449 61.304 128.516C60.2213 127.583 59.68 126.351 59.68 124.82H63.096C63.152 125.548 63.3853 126.155 63.796 126.64C64.2067 127.107 64.7947 127.405 65.56 127.536V121.376C64.3093 121.059 63.292 120.741 62.508 120.424C61.724 120.088 61.052 119.565 60.492 118.856C59.9507 118.147 59.68 117.176 59.68 115.944C59.68 114.395 60.2213 113.116 61.304 112.108C62.3867 111.081 63.8053 110.484 65.56 110.316V108.048H67.38V110.316C69.0227 110.465 70.3387 110.988 71.328 111.884C72.336 112.761 72.9053 113.975 73.036 115.524H69.62C69.564 114.945 69.34 114.432 68.948 113.984C68.556 113.517 68.0333 113.2 67.38 113.032V119.08C68.6307 119.379 69.648 119.696 70.432 120.032C71.216 120.349 71.8787 120.863 72.42 121.572C72.9613 122.263 73.232 123.224 73.232 124.456ZM62.928 115.776C62.928 116.541 63.152 117.139 63.6 117.568C64.0667 117.997 64.72 118.343 65.56 118.604V112.948C64.7573 113.041 64.1133 113.331 63.628 113.816C63.1613 114.301 62.928 114.955 62.928 115.776ZM67.38 127.536C68.2013 127.405 68.8453 127.079 69.312 126.556C69.7787 126.015 70.012 125.371 70.012 124.624C70.012 123.877 69.7787 123.299 69.312 122.888C68.864 122.459 68.22 122.113 67.38 121.852V127.536ZM91.0509 112.332H81.6709V117.904C82.0629 117.381 82.6416 116.943 83.4069 116.588C84.1909 116.233 85.0216 116.056 85.8989 116.056C87.4669 116.056 88.7363 116.392 89.7069 117.064C90.6963 117.736 91.3963 118.585 91.8069 119.612C92.2363 120.639 92.4509 121.721 92.4509 122.86C92.4509 124.241 92.1803 125.473 91.6389 126.556C91.1163 127.62 90.3229 128.46 89.2589 129.076C88.2136 129.692 86.9256 130 85.3949 130C83.3603 130 81.7269 129.496 80.4949 128.488C79.2629 127.48 78.5256 126.145 78.2829 124.484H81.3909C81.5963 125.361 82.0536 126.061 82.7629 126.584C83.4723 127.088 84.3589 127.34 85.4229 127.34C86.7483 127.34 87.7376 126.939 88.3909 126.136C89.0629 125.333 89.3989 124.269 89.3989 122.944C89.3989 121.6 89.0629 120.573 88.3909 119.864C87.7189 119.136 86.7296 118.772 85.4229 118.772C84.5083 118.772 83.7336 119.005 83.0989 119.472C82.4829 119.92 82.0349 120.536 81.7549 121.32H78.7309V109.532H91.0509V112.332ZM99.6938 126.164L96.3058 133.892H94.2338L96.2218 126.164H99.6938ZM114.999 112.052L107.215 130H103.995L111.863 112.388H101.503V109.672H114.999V112.052ZM130.891 112.332H121.511V117.904C121.903 117.381 122.481 116.943 123.247 116.588C124.031 116.233 124.861 116.056 125.739 116.056C127.307 116.056 128.576 116.392 129.547 117.064C130.536 117.736 131.236 118.585 131.647 119.612C132.076 120.639 132.291 121.721 132.291 122.86C132.291 124.241 132.02 125.473 131.479 126.556C130.956 127.62 130.163 128.46 129.099 129.076C128.053 129.692 126.765 130 125.235 130C123.2 130 121.567 129.496 120.335 128.488C119.103 127.48 118.365 126.145 118.123 124.484H121.231C121.436 125.361 121.893 126.061 122.603 126.584C123.312 127.088 124.199 127.34 125.263 127.34C126.588 127.34 127.577 126.939 128.231 126.136C128.903 125.333 129.239 124.269 129.239 122.944C129.239 121.6 128.903 120.573 128.231 119.864C127.559 119.136 126.569 118.772 125.263 118.772C124.348 118.772 123.573 119.005 122.939 119.472C122.323 119.92 121.875 120.536 121.595 121.32H118.571V109.532H130.891V112.332ZM135.614 119.528C135.614 116.299 136.155 113.779 137.238 111.968C138.339 110.139 140.224 109.224 142.894 109.224C145.563 109.224 147.439 110.139 148.522 111.968C149.623 113.779 150.174 116.299 150.174 119.528C150.174 122.795 149.623 125.352 148.522 127.2C147.439 129.029 145.563 129.944 142.894 129.944C140.224 129.944 138.339 129.029 137.238 127.2C136.155 125.352 135.614 122.795 135.614 119.528ZM147.038 119.528C147.038 118.016 146.935 116.737 146.73 115.692C146.543 114.647 146.151 113.797 145.554 113.144C144.956 112.472 144.07 112.136 142.894 112.136C141.718 112.136 140.831 112.472 140.234 113.144C139.636 113.797 139.235 114.647 139.03 115.692C138.843 116.737 138.75 118.016 138.75 119.528C138.75 121.096 138.843 122.412 139.03 123.476C139.216 124.54 139.608 125.399 140.206 126.052C140.822 126.705 141.718 127.032 142.894 127.032C144.07 127.032 144.956 126.705 145.554 126.052C146.17 125.399 146.571 124.54 146.758 123.476C146.944 122.412 147.038 121.096 147.038 119.528ZM157.471 126.164L154.083 133.892H152.011L153.999 126.164H157.471ZM161.604 125.66C163.396 124.111 164.805 122.841 165.832 121.852C166.877 120.844 167.745 119.799 168.436 118.716C169.127 117.633 169.472 116.551 169.472 115.468C169.472 114.348 169.201 113.471 168.66 112.836C168.137 112.201 167.307 111.884 166.168 111.884C165.067 111.884 164.208 112.239 163.592 112.948C162.995 113.639 162.677 114.572 162.64 115.748H159.56C159.616 113.62 160.251 111.996 161.464 110.876C162.696 109.737 164.255 109.168 166.14 109.168C168.175 109.168 169.761 109.728 170.9 110.848C172.057 111.968 172.636 113.461 172.636 115.328C172.636 116.672 172.291 117.969 171.6 119.22C170.928 120.452 170.116 121.563 169.164 122.552C168.231 123.523 167.036 124.652 165.58 125.94L164.32 127.06H173.196V129.72H159.588V127.396L161.604 125.66ZM176 119.528C176 116.299 176.542 113.779 177.624 111.968C178.726 110.139 180.611 109.224 183.28 109.224C185.95 109.224 187.826 110.139 188.908 111.968C190.01 113.779 190.56 116.299 190.56 119.528C190.56 122.795 190.01 125.352 188.908 127.2C187.826 129.029 185.95 129.944 183.28 129.944C180.611 129.944 178.726 129.029 177.624 127.2C176.542 125.352 176 122.795 176 119.528ZM187.424 119.528C187.424 118.016 187.322 116.737 187.116 115.692C186.93 114.647 186.538 113.797 185.94 113.144C185.343 112.472 184.456 112.136 183.28 112.136C182.104 112.136 181.218 112.472 180.62 113.144C180.023 113.797 179.622 114.647 179.416 115.692C179.23 116.737 179.136 118.016 179.136 119.528C179.136 121.096 179.23 122.412 179.416 123.476C179.603 124.54 179.995 125.399 180.592 126.052C181.208 126.705 182.104 127.032 183.28 127.032C184.456 127.032 185.343 126.705 185.94 126.052C186.556 125.399 186.958 124.54 187.144 123.476C187.331 122.412 187.424 121.096 187.424 119.528Z" fill="white"/>
<path opacity="0.54" d="M58.518 67.114C58.518 66.162 58.7373 65.308 59.176 64.552C59.624 63.796 60.226 63.208 60.982 62.788C61.7473 62.3587 62.5827 62.144 63.488 62.144C64.524 62.144 65.4433 62.4007 66.246 62.914C67.058 63.418 67.646 64.1367 68.01 65.07H66.092C65.84 64.5567 65.49 64.174 65.042 63.922C64.594 63.67 64.076 63.544 63.488 63.544C62.844 63.544 62.27 63.6887 61.766 63.978C61.262 64.2673 60.8653 64.6827 60.576 65.224C60.296 65.7653 60.156 66.3953 60.156 67.114C60.156 67.8327 60.296 68.4627 60.576 69.004C60.8653 69.5453 61.262 69.9653 61.766 70.264C62.27 70.5533 62.844 70.698 63.488 70.698C64.076 70.698 64.594 70.572 65.042 70.32C65.49 70.068 65.84 69.6853 66.092 69.172H68.01C67.646 70.1053 67.058 70.824 66.246 71.328C65.4433 71.832 64.524 72.084 63.488 72.084C62.5733 72.084 61.738 71.874 60.982 71.454C60.226 71.0247 59.624 70.432 59.176 69.676C58.7373 68.92 58.518 68.066 58.518 67.114ZM76.8641 64.286V72H75.2681V71.09C75.0161 71.4073 74.6848 71.6593 74.2741 71.846C73.8728 72.0233 73.4435 72.112 72.9861 72.112C72.3795 72.112 71.8335 71.986 71.3481 71.734C70.8721 71.482 70.4941 71.1087 70.2141 70.614C69.9435 70.1193 69.8081 69.522 69.8081 68.822V64.286H71.3901V68.584C71.3901 69.2747 71.5628 69.8067 71.9081 70.18C72.2535 70.544 72.7248 70.726 73.3221 70.726C73.9195 70.726 74.3908 70.544 74.7361 70.18C75.0908 69.8067 75.2681 69.2747 75.2681 68.584V64.286H76.8641ZM80.5659 65.406C80.7993 65.014 81.1073 64.7107 81.4899 64.496C81.8819 64.272 82.3439 64.16 82.8759 64.16V65.812H82.4699C81.8446 65.812 81.3686 65.9707 81.0419 66.288C80.7246 66.6053 80.5659 67.156 80.5659 67.94V72H78.9699V64.286H80.5659V65.406ZM85.939 65.406C86.1723 65.014 86.4803 64.7107 86.863 64.496C87.255 64.272 87.717 64.16 88.249 64.16V65.812H87.843C87.2176 65.812 86.7416 65.9707 86.415 66.288C86.0976 66.6053 85.939 67.156 85.939 67.94V72H84.343V64.286H85.939V65.406ZM96.786 67.954C96.786 68.2433 96.7673 68.5047 96.73 68.738H90.836C90.8827 69.354 91.1113 69.8487 91.522 70.222C91.9327 70.5953 92.4367 70.782 93.034 70.782C93.8927 70.782 94.4993 70.4227 94.854 69.704H96.576C96.3427 70.4133 95.918 70.9967 95.302 71.454C94.6953 71.902 93.9393 72.126 93.034 72.126C92.2967 72.126 91.634 71.9627 91.046 71.636C90.4673 71.3 90.01 70.8333 89.674 70.236C89.3473 69.6293 89.184 68.9293 89.184 68.136C89.184 67.3427 89.3427 66.6473 89.66 66.05C89.9867 65.4433 90.4393 64.9767 91.018 64.65C91.606 64.3233 92.278 64.16 93.034 64.16C93.762 64.16 94.4107 64.3187 94.98 64.636C95.5493 64.9533 95.9927 65.4013 96.31 65.98C96.6273 66.5493 96.786 67.2073 96.786 67.954ZM95.12 67.45C95.1107 66.862 94.9007 66.3907 94.49 66.036C94.0793 65.6813 93.5707 65.504 92.964 65.504C92.4133 65.504 91.942 65.6813 91.55 66.036C91.158 66.3813 90.9247 66.8527 90.85 67.45H95.12ZM102.249 64.16C102.855 64.16 103.397 64.286 103.873 64.538C104.358 64.79 104.736 65.1633 105.007 65.658C105.277 66.1527 105.413 66.75 105.413 67.45V72H103.831V67.688C103.831 66.9973 103.658 66.47 103.313 66.106C102.967 65.7327 102.496 65.546 101.899 65.546C101.301 65.546 100.825 65.7327 100.471 66.106C100.125 66.47 99.9526 66.9973 99.9526 67.688V72H98.3566V64.286H99.9526V65.168C100.214 64.8507 100.545 64.6033 100.947 64.426C101.357 64.2487 101.791 64.16 102.249 64.16ZM109.31 65.588V69.858C109.31 70.1473 109.376 70.3573 109.506 70.488C109.646 70.6093 109.88 70.67 110.206 70.67H111.186V72H109.926C109.208 72 108.657 71.832 108.274 71.496C107.892 71.16 107.7 70.614 107.7 69.858V65.588H106.79V64.286H107.7V62.368H109.31V64.286H111.186V65.588H109.31ZM121.502 67.002C122.025 67.0953 122.468 67.3707 122.832 67.828C123.196 68.2853 123.378 68.8033 123.378 69.382C123.378 69.8767 123.247 70.3247 122.986 70.726C122.734 71.118 122.365 71.4307 121.88 71.664C121.395 71.888 120.83 72 120.186 72H116.294V62.27H120.004C120.667 62.27 121.236 62.382 121.712 62.606C122.188 62.83 122.547 63.1333 122.79 63.516C123.033 63.8893 123.154 64.3093 123.154 64.776C123.154 65.336 123.005 65.8027 122.706 66.176C122.407 66.5493 122.006 66.8247 121.502 67.002ZM117.89 66.358H119.864C120.387 66.358 120.793 66.2413 121.082 66.008C121.381 65.7653 121.53 65.42 121.53 64.972C121.53 64.5333 121.381 64.1927 121.082 63.95C120.793 63.698 120.387 63.572 119.864 63.572H117.89V66.358ZM120.046 70.698C120.587 70.698 121.012 70.5673 121.32 70.306C121.628 70.0447 121.782 69.6807 121.782 69.214C121.782 68.738 121.619 68.36 121.292 68.08C120.965 67.8 120.531 67.66 119.99 67.66H117.89V70.698H120.046ZM124.581 68.108C124.581 67.3333 124.739 66.6473 125.057 66.05C125.383 65.4527 125.822 64.9907 126.373 64.664C126.933 64.328 127.549 64.16 128.221 64.16C128.827 64.16 129.355 64.2813 129.803 64.524C130.26 64.7573 130.624 65.0513 130.895 65.406V64.286H132.505V72H130.895V70.852C130.624 71.216 130.255 71.5193 129.789 71.762C129.322 72.0047 128.79 72.126 128.193 72.126C127.53 72.126 126.923 71.958 126.373 71.622C125.822 71.2767 125.383 70.8007 125.057 70.194C124.739 69.578 124.581 68.8827 124.581 68.108ZM130.895 68.136C130.895 67.604 130.783 67.142 130.559 66.75C130.344 66.358 130.059 66.0593 129.705 65.854C129.35 65.6487 128.967 65.546 128.557 65.546C128.146 65.546 127.763 65.6487 127.409 65.854C127.054 66.05 126.765 66.344 126.541 66.736C126.326 67.1187 126.219 67.576 126.219 68.108C126.219 68.64 126.326 69.1067 126.541 69.508C126.765 69.9093 127.054 70.2173 127.409 70.432C127.773 70.6373 128.155 70.74 128.557 70.74C128.967 70.74 129.35 70.6373 129.705 70.432C130.059 70.2267 130.344 69.928 130.559 69.536C130.783 69.1347 130.895 68.668 130.895 68.136ZM136.197 61.64V72H134.601V61.64H136.197ZM137.76 68.108C137.76 67.3333 137.919 66.6473 138.236 66.05C138.563 65.4527 139.002 64.9907 139.552 64.664C140.112 64.328 140.728 64.16 141.4 64.16C142.007 64.16 142.534 64.2813 142.982 64.524C143.44 64.7573 143.804 65.0513 144.074 65.406V64.286H145.684V72H144.074V70.852C143.804 71.216 143.435 71.5193 142.968 71.762C142.502 72.0047 141.97 72.126 141.372 72.126C140.71 72.126 140.103 71.958 139.552 71.622C139.002 71.2767 138.563 70.8007 138.236 70.194C137.919 69.578 137.76 68.8827 137.76 68.108ZM144.074 68.136C144.074 67.604 143.962 67.142 143.738 66.75C143.524 66.358 143.239 66.0593 142.884 65.854C142.53 65.6487 142.147 65.546 141.736 65.546C141.326 65.546 140.943 65.6487 140.588 65.854C140.234 66.05 139.944 66.344 139.72 66.736C139.506 67.1187 139.398 67.576 139.398 68.108C139.398 68.64 139.506 69.1067 139.72 69.508C139.944 69.9093 140.234 70.2173 140.588 70.432C140.952 70.6373 141.335 70.74 141.736 70.74C142.147 70.74 142.53 70.6373 142.884 70.432C143.239 70.2267 143.524 69.928 143.738 69.536C143.962 69.1347 144.074 68.668 144.074 68.136ZM151.672 64.16C152.279 64.16 152.82 64.286 153.296 64.538C153.782 64.79 154.16 65.1633 154.43 65.658C154.701 66.1527 154.836 66.75 154.836 67.45V72H153.254V67.688C153.254 66.9973 153.082 66.47 152.736 66.106C152.391 65.7327 151.92 65.546 151.322 65.546C150.725 65.546 150.249 65.7327 149.894 66.106C149.549 66.47 149.376 66.9973 149.376 67.688V72H147.78V64.286H149.376V65.168C149.638 64.8507 149.969 64.6033 150.37 64.426C150.781 64.2487 151.215 64.16 151.672 64.16ZM156.34 68.136C156.34 67.3427 156.499 66.6473 156.816 66.05C157.143 65.4433 157.591 64.9767 158.16 64.65C158.73 64.3233 159.383 64.16 160.12 64.16C161.054 64.16 161.824 64.384 162.43 64.832C163.046 65.2707 163.462 65.9007 163.676 66.722H161.954C161.814 66.3393 161.59 66.0407 161.282 65.826C160.974 65.6113 160.587 65.504 160.12 65.504C159.467 65.504 158.944 65.7373 158.552 66.204C158.17 66.6613 157.978 67.3053 157.978 68.136C157.978 68.9667 158.17 69.6153 158.552 70.082C158.944 70.5487 159.467 70.782 160.12 70.782C161.044 70.782 161.656 70.376 161.954 69.564H163.676C163.452 70.348 163.032 70.9733 162.416 71.44C161.8 71.8973 161.035 72.126 160.12 72.126C159.383 72.126 158.73 71.9627 158.16 71.636C157.591 71.3 157.143 70.8333 156.816 70.236C156.499 69.6293 156.34 68.9293 156.34 68.136ZM172.337 67.954C172.337 68.2433 172.318 68.5047 172.281 68.738H166.387C166.433 69.354 166.662 69.8487 167.073 70.222C167.483 70.5953 167.987 70.782 168.585 70.782C169.443 70.782 170.05 70.4227 170.405 69.704H172.127C171.893 70.4133 171.469 70.9967 170.853 71.454C170.246 71.902 169.49 72.126 168.585 72.126C167.847 72.126 167.185 71.9627 166.597 71.636C166.018 71.3 165.561 70.8333 165.225 70.236C164.898 69.6293 164.735 68.9293 164.735 68.136C164.735 67.3427 164.893 66.6473 165.211 66.05C165.537 65.4433 165.99 64.9767 166.569 64.65C167.157 64.3233 167.829 64.16 168.585 64.16C169.313 64.16 169.961 64.3187 170.531 64.636C171.1 64.9533 171.543 65.4013 171.861 65.98C172.178 66.5493 172.337 67.2073 172.337 67.954ZM170.671 67.45C170.661 66.862 170.451 66.3907 170.041 66.036C169.63 65.6813 169.121 65.504 168.515 65.504C167.964 65.504 167.493 65.6813 167.101 66.036C166.709 66.3813 166.475 66.8527 166.401 67.45H170.671Z" fill="white"/>
</g>
<g filter="url(#filter0_f_323_3373)">
<rect x="440" y="157" width="200" height="223" rx="30" fill="black" fill-opacity="0.32"/>
</g>
<rect x="440" y="157" width="214" height="266" rx="30" fill="url(#paint1_linear_323_3373)"/>
<g clip-path="url(#clip3_323_3373)">
<mask id="mask1_323_3373" style="mask-type:alpha" maskUnits="userSpaceOnUse" x="440" y="157" width="214" height="266">
<rect x="440" y="157" width="214" height="266" rx="30" fill="#ED713C"/>
</mask>
<g mask="url(#mask1_323_3373)">
<g opacity="0.1">
<mask id="path-16-inside-1_323_3373" fill="white">
<path fill-rule="evenodd" clip-rule="evenodd" d="M546.451 157H654.009V304.59C599.355 281.508 557.864 225.639 546.451 157Z"/>
</mask>
<path fill-rule="evenodd" clip-rule="evenodd" d="M546.451 157H654.009V304.59C599.355 281.508 557.864 225.639 546.451 157Z" fill="black"/>
<path d="M546.451 157V121H503.971L510.939 162.905L546.451 157ZM654.009 157H690.009V121H654.009V157ZM654.009 304.59L640.003 337.754L690.009 358.874V304.59H654.009ZM546.451 193H654.009V121H546.451V193ZM618.009 157V304.59H690.009V157H618.009ZM668.016 271.427C626.472 253.881 591.684 209.556 581.964 151.095L510.939 162.905C524.044 241.723 572.239 309.134 640.003 337.754L668.016 271.427Z" fill="black" mask="url(#path-16-inside-1_323_3373)"/>
</g>
<g opacity="0.1">
<mask id="path-18-inside-2_323_3373" fill="white">
<path fill-rule="evenodd" clip-rule="evenodd" d="M564.927 423C559.26 352.554 507.97 294.675 439.991 277.704L439.991 423L564.927 423Z"/>
</mask>
<path fill-rule="evenodd" clip-rule="evenodd" d="M564.927 423C559.26 352.554 507.97 294.675 439.991 277.704L439.991 423L564.927 423Z" fill="black"/>
<path d="M439.991 277.704L448.711 242.776L403.991 231.611L403.991 277.704L439.991 277.704ZM564.927 423L564.927 459L603.939 459L600.811 420.113L564.927 423ZM439.991 423L403.991 423L403.991 459L439.991 459L439.991 423ZM431.271 312.632C484.909 326.023 524.668 371.503 529.043 425.887L600.811 420.113C593.852 333.604 531.032 263.328 448.711 242.776L431.271 312.632ZM475.991 423L475.991 277.704L403.991 277.704L403.991 423L475.991 423ZM564.927 387L439.991 387L439.991 459L564.927 459L564.927 387Z" fill="black" mask="url(#path-18-inside-2_323_3373)"/>
</g>
</g>
</g>
<path d="M595.606 369.886C595.606 368.617 595.819 367.627 596.244 366.916C596.677 366.197 597.418 365.838 598.466 365.838C599.515 365.838 600.252 366.197 600.677 366.916C601.11 367.627 601.326 368.617 601.326 369.886C601.326 371.169 601.11 372.174 600.677 372.9C600.252 373.619 599.515 373.978 598.466 373.978C597.418 373.978 596.677 373.619 596.244 372.9C595.819 372.174 595.606 371.169 595.606 369.886ZM600.094 369.886C600.094 369.292 600.054 368.79 599.973 368.379C599.9 367.968 599.746 367.635 599.511 367.378C599.277 367.114 598.928 366.982 598.466 366.982C598.004 366.982 597.656 367.114 597.421 367.378C597.187 367.635 597.029 367.968 596.948 368.379C596.875 368.79 596.838 369.292 596.838 369.886C596.838 370.502 596.875 371.019 596.948 371.437C597.022 371.855 597.176 372.192 597.41 372.449C597.652 372.706 598.004 372.834 598.466 372.834C598.928 372.834 599.277 372.706 599.511 372.449C599.753 372.192 599.911 371.855 599.984 371.437C600.058 371.019 600.094 370.502 600.094 369.886ZM604.215 371.822C604.288 372.189 604.446 372.467 604.688 372.658C604.93 372.849 605.256 372.944 605.667 372.944C606.188 372.944 606.569 372.739 606.811 372.328C607.053 371.917 607.174 371.217 607.174 370.227C606.998 370.476 606.749 370.671 606.426 370.81C606.111 370.942 605.766 371.008 605.392 371.008C604.915 371.008 604.483 370.913 604.094 370.722C603.705 370.524 603.397 370.234 603.17 369.853C602.95 369.464 602.84 368.995 602.84 368.445C602.84 367.638 603.075 366.997 603.544 366.52C604.021 366.036 604.673 365.794 605.502 365.794C606.499 365.794 607.207 366.128 607.625 366.795C608.05 367.455 608.263 368.471 608.263 369.842C608.263 370.788 608.182 371.562 608.021 372.163C607.867 372.764 607.596 373.219 607.207 373.527C606.818 373.835 606.279 373.989 605.59 373.989C604.805 373.989 604.2 373.784 603.775 373.373C603.35 372.962 603.111 372.445 603.06 371.822H604.215ZM605.612 369.952C606.052 369.952 606.397 369.816 606.646 369.545C606.903 369.266 607.031 368.9 607.031 368.445C607.031 367.939 606.895 367.547 606.624 367.268C606.36 366.982 605.997 366.839 605.535 366.839C605.073 366.839 604.706 366.986 604.435 367.279C604.171 367.565 604.039 367.943 604.039 368.412C604.039 368.859 604.167 369.23 604.424 369.523C604.688 369.809 605.084 369.952 605.612 369.952ZM613.871 363.616L610.879 375.925H609.647L612.628 363.616H613.871ZM615.979 372.295C616.683 371.686 617.237 371.188 617.64 370.799C618.051 370.403 618.392 369.992 618.663 369.567C618.934 369.142 619.07 368.716 619.07 368.291C619.07 367.851 618.964 367.506 618.751 367.257C618.546 367.008 618.219 366.883 617.772 366.883C617.339 366.883 617.002 367.022 616.76 367.301C616.525 367.572 616.401 367.939 616.386 368.401H615.176C615.198 367.565 615.447 366.927 615.924 366.487C616.408 366.04 617.02 365.816 617.761 365.816C618.56 365.816 619.184 366.036 619.631 366.476C620.086 366.916 620.313 367.503 620.313 368.236C620.313 368.764 620.177 369.274 619.906 369.765C619.642 370.249 619.323 370.685 618.949 371.074C618.582 371.455 618.113 371.899 617.541 372.405L617.046 372.845H620.533V373.89H615.187V372.977L615.979 372.295ZM626.805 367.059H623.12V369.248C623.274 369.043 623.501 368.87 623.802 368.731C624.11 368.592 624.436 368.522 624.781 368.522C625.397 368.522 625.895 368.654 626.277 368.918C626.665 369.182 626.94 369.516 627.102 369.919C627.27 370.322 627.355 370.748 627.355 371.195C627.355 371.738 627.248 372.222 627.036 372.647C626.83 373.065 626.519 373.395 626.101 373.637C625.69 373.879 625.184 374 624.583 374C623.783 374 623.142 373.802 622.658 373.406C622.174 373.01 621.884 372.486 621.789 371.833H623.01C623.09 372.178 623.27 372.453 623.549 372.658C623.827 372.856 624.176 372.955 624.594 372.955C625.114 372.955 625.503 372.797 625.76 372.482C626.024 372.167 626.156 371.749 626.156 371.228C626.156 370.7 626.024 370.297 625.76 370.018C625.496 369.732 625.107 369.589 624.594 369.589C624.234 369.589 623.93 369.681 623.681 369.864C623.439 370.04 623.263 370.282 623.153 370.59H621.965V365.959H626.805V367.059Z" fill="white"/>
<path d="M536.585 309.875V308.523H539.289V318H537.794V309.875H536.585ZM542.144 315.985C542.976 315.266 543.63 314.676 544.107 314.217C544.592 313.749 544.995 313.264 545.316 312.761C545.637 312.258 545.797 311.756 545.797 311.253C545.797 310.733 545.671 310.326 545.42 310.031C545.177 309.736 544.792 309.589 544.263 309.589C543.752 309.589 543.353 309.754 543.067 310.083C542.79 310.404 542.642 310.837 542.625 311.383H541.195C541.221 310.395 541.516 309.641 542.079 309.121C542.651 308.592 543.375 308.328 544.25 308.328C545.195 308.328 545.931 308.588 546.46 309.108C546.997 309.628 547.266 310.321 547.266 311.188C547.266 311.812 547.106 312.414 546.785 312.995C546.473 313.567 546.096 314.083 545.654 314.542C545.221 314.993 544.666 315.517 543.99 316.115L543.405 316.635H547.526V317.87H541.208V316.791L542.144 315.985ZM550.427 313.047C549.526 312.596 549.075 311.886 549.075 310.915C549.075 310.447 549.192 310.018 549.426 309.628C549.66 309.238 550.011 308.93 550.479 308.705C550.947 308.471 551.519 308.354 552.195 308.354C552.862 308.354 553.43 308.471 553.898 308.705C554.375 308.93 554.73 309.238 554.964 309.628C555.198 310.018 555.315 310.447 555.315 310.915C555.315 311.4 555.189 311.829 554.938 312.202C554.695 312.566 554.37 312.848 553.963 313.047C554.457 313.229 554.847 313.528 555.133 313.944C555.419 314.351 555.562 314.832 555.562 315.387C555.562 315.95 555.419 316.449 555.133 316.882C554.847 317.315 554.448 317.649 553.937 317.883C553.426 318.117 552.845 318.234 552.195 318.234C551.545 318.234 550.964 318.117 550.453 317.883C549.95 317.649 549.556 317.315 549.27 316.882C548.984 316.449 548.841 315.95 548.841 315.387C548.841 314.824 548.984 314.338 549.27 313.931C549.556 313.524 549.942 313.229 550.427 313.047ZM553.898 311.097C553.898 310.612 553.746 310.239 553.443 309.979C553.14 309.719 552.724 309.589 552.195 309.589C551.675 309.589 551.263 309.719 550.96 309.979C550.657 310.239 550.505 310.616 550.505 311.11C550.505 311.543 550.661 311.899 550.973 312.176C551.294 312.445 551.701 312.579 552.195 312.579C552.689 312.579 553.096 312.44 553.417 312.163C553.738 311.886 553.898 311.53 553.898 311.097ZM552.195 313.697C551.623 313.697 551.155 313.84 550.791 314.126C550.436 314.403 550.258 314.806 550.258 315.335C550.258 315.829 550.431 316.232 550.778 316.544C551.125 316.847 551.597 316.999 552.195 316.999C552.784 316.999 553.248 316.843 553.586 316.531C553.933 316.219 554.106 315.82 554.106 315.335C554.106 314.815 553.928 314.412 553.573 314.126C553.226 313.84 552.767 313.697 552.195 313.697ZM558.964 315.426C559.051 315.859 559.237 316.189 559.523 316.414C559.809 316.639 560.195 316.752 560.68 316.752C561.295 316.752 561.746 316.509 562.032 316.024C562.318 315.539 562.461 314.711 562.461 313.541C562.253 313.836 561.958 314.065 561.577 314.23C561.204 314.386 560.797 314.464 560.355 314.464C559.792 314.464 559.28 314.351 558.821 314.126C558.362 313.892 557.998 313.55 557.729 313.099C557.469 312.64 557.339 312.085 557.339 311.435C557.339 310.482 557.616 309.723 558.171 309.16C558.734 308.588 559.506 308.302 560.485 308.302C561.664 308.302 562.5 308.696 562.994 309.485C563.497 310.265 563.748 311.465 563.748 313.086C563.748 314.204 563.653 315.118 563.462 315.829C563.28 316.54 562.959 317.077 562.5 317.441C562.041 317.805 561.404 317.987 560.589 317.987C559.662 317.987 558.947 317.744 558.444 317.259C557.941 316.774 557.66 316.163 557.599 315.426H558.964ZM560.615 313.216C561.135 313.216 561.542 313.056 561.837 312.735C562.14 312.406 562.292 311.972 562.292 311.435C562.292 310.837 562.132 310.373 561.811 310.044C561.499 309.706 561.07 309.537 560.524 309.537C559.978 309.537 559.545 309.71 559.224 310.057C558.912 310.395 558.756 310.841 558.756 311.396C558.756 311.925 558.908 312.362 559.211 312.709C559.523 313.047 559.991 313.216 560.615 313.216Z" fill="white"/>
<circle cx="512" cy="319" r="3" fill="white"/>
<circle cx="483" cy="319" r="3" fill="white"/>
<circle cx="497" cy="319" r="3" fill="white"/>
<circle cx="468" cy="319" r="3" fill="white"/>
<rect x="465.026" y="354.99" width="48.5982" height="31.8552" rx="5" fill="url(#paint2_radial_323_3373)"/>
<path fill-rule="evenodd" clip-rule="evenodd" d="M489.326 355.307L483.926 363.632C483.926 363.632 486.086 370.916 483.926 377.16L489.326 386.525L494.725 377.16C494.725 377.16 492.565 371.957 494.725 363.632C494.725 363.632 489.326 355.307 489.326 355.307Z" stroke="#C7C7B6" stroke-width="1.3" stroke-linejoin="bevel"/>
<path d="M465.026 364.014H483.926" stroke="#C7C7B6" stroke-width="1.3" stroke-linejoin="bevel"/>
<path d="M494.185 364.014H513.624" stroke="#C7C7B6" stroke-width="1.3" stroke-linejoin="bevel"/>
<path d="M465.026 376.756H483.926" stroke="#C7C7B6" stroke-width="1.3" stroke-linejoin="bevel"/>
<path d="M494.185 376.756H513.624" stroke="#C7C7B6" stroke-width="1.3" stroke-linejoin="bevel"/>
<path opacity="0.5" d="M465.444 286.812C465.444 285.996 465.632 285.264 466.008 284.616C466.392 283.968 466.908 283.464 467.556 283.104C468.212 282.736 468.928 282.552 469.704 282.552C470.592 282.552 471.38 282.772 472.068 283.212C472.764 283.644 473.268 284.26 473.58 285.06H471.936C471.72 284.62 471.42 284.292 471.036 284.076C470.652 283.86 470.208 283.752 469.704 283.752C469.152 283.752 468.66 283.876 468.228 284.124C467.796 284.372 467.456 284.728 467.208 285.192C466.968 285.656 466.848 286.196 466.848 286.812C466.848 287.428 466.968 287.968 467.208 288.432C467.456 288.896 467.796 289.256 468.228 289.512C468.66 289.76 469.152 289.884 469.704 289.884C470.208 289.884 470.652 289.776 471.036 289.56C471.42 289.344 471.72 289.016 471.936 288.576H473.58C473.268 289.376 472.764 289.992 472.068 290.424C471.38 290.856 470.592 291.072 469.704 291.072C468.92 291.072 468.204 290.892 467.556 290.532C466.908 290.164 466.392 289.656 466.008 289.008C465.632 288.36 465.444 287.628 465.444 286.812ZM476.549 285.348C476.749 285.012 477.013 284.752 477.341 284.568C477.677 284.376 478.073 284.28 478.529 284.28V285.696H478.181C477.645 285.696 477.237 285.832 476.957 286.104C476.685 286.376 476.549 286.848 476.549 287.52V291H475.181V284.388H476.549V285.348ZM485.847 287.532C485.847 287.78 485.831 288.004 485.799 288.204H480.747C480.787 288.732 480.983 289.156 481.335 289.476C481.687 289.796 482.119 289.956 482.631 289.956C483.367 289.956 483.887 289.648 484.191 289.032H485.667C485.467 289.64 485.103 290.14 484.575 290.532C484.055 290.916 483.407 291.108 482.631 291.108C481.999 291.108 481.431 290.968 480.927 290.688C480.431 290.4 480.039 290 479.751 289.488C479.471 288.968 479.331 288.368 479.331 287.688C479.331 287.008 479.467 286.412 479.739 285.9C480.019 285.38 480.407 284.98 480.903 284.7C481.407 284.42 481.983 284.28 482.631 284.28C483.255 284.28 483.811 284.416 484.299 284.688C484.787 284.96 485.167 285.344 485.439 285.84C485.711 286.328 485.847 286.892 485.847 287.532ZM484.419 287.1C484.411 286.596 484.231 286.192 483.879 285.888C483.527 285.584 483.091 285.432 482.571 285.432C482.099 285.432 481.695 285.584 481.359 285.888C481.023 286.184 480.823 286.588 480.759 287.1H484.419ZM486.737 287.664C486.737 287 486.873 286.412 487.145 285.9C487.425 285.388 487.801 284.992 488.273 284.712C488.753 284.424 489.285 284.28 489.869 284.28C490.301 284.28 490.725 284.376 491.141 284.568C491.565 284.752 491.901 285 492.149 285.312V282.12H493.529V291H492.149V290.004C491.925 290.324 491.613 290.588 491.213 290.796C490.821 291.004 490.369 291.108 489.857 291.108C489.281 291.108 488.753 290.964 488.273 290.676C487.801 290.38 487.425 289.972 487.145 289.452C486.873 288.924 486.737 288.328 486.737 287.664ZM492.149 287.688C492.149 287.232 492.053 286.836 491.861 286.5C491.677 286.164 491.433 285.908 491.129 285.732C490.825 285.556 490.497 285.468 490.145 285.468C489.793 285.468 489.465 285.556 489.161 285.732C488.857 285.9 488.609 286.152 488.417 286.488C488.233 286.816 488.141 287.208 488.141 287.664C488.141 288.12 488.233 288.52 488.417 288.864C488.609 289.208 488.857 289.472 489.161 289.656C489.473 289.832 489.801 289.92 490.145 289.92C490.497 289.92 490.825 289.832 491.129 289.656C491.433 289.48 491.677 289.224 491.861 288.888C492.053 288.544 492.149 288.144 492.149 287.688ZM496.022 283.512C495.774 283.512 495.566 283.428 495.398 283.26C495.23 283.092 495.146 282.884 495.146 282.636C495.146 282.388 495.23 282.18 495.398 282.012C495.566 281.844 495.774 281.76 496.022 281.76C496.262 281.76 496.466 281.844 496.634 282.012C496.802 282.18 496.886 282.388 496.886 282.636C496.886 282.884 496.802 283.092 496.634 283.26C496.466 283.428 496.262 283.512 496.022 283.512ZM496.694 284.388V291H495.326V284.388H496.694ZM500.086 285.504V289.164C500.086 289.412 500.142 289.592 500.254 289.704C500.374 289.808 500.574 289.86 500.854 289.86H501.694V291H500.614C499.998 291 499.526 290.856 499.198 290.568C498.87 290.28 498.706 289.812 498.706 289.164V285.504H497.926V284.388H498.706V282.744H500.086V284.388H501.694V285.504H500.086ZM505.616 286.812C505.616 285.996 505.804 285.264 506.18 284.616C506.564 283.968 507.08 283.464 507.728 283.104C508.384 282.736 509.1 282.552 509.876 282.552C510.764 282.552 511.552 282.772 512.24 283.212C512.936 283.644 513.44 284.26 513.752 285.06H512.108C511.892 284.62 511.592 284.292 511.208 284.076C510.824 283.86 510.38 283.752 509.876 283.752C509.324 283.752 508.832 283.876 508.4 284.124C507.968 284.372 507.628 284.728 507.38 285.192C507.14 285.656 507.02 286.196 507.02 286.812C507.02 287.428 507.14 287.968 507.38 288.432C507.628 288.896 507.968 289.256 508.4 289.512C508.832 289.76 509.324 289.884 509.876 289.884C510.38 289.884 510.824 289.776 511.208 289.56C511.592 289.344 511.892 289.016 512.108 288.576H513.752C513.44 289.376 512.936 289.992 512.24 290.424C511.552 290.856 510.764 291.072 509.876 291.072C509.092 291.072 508.376 290.892 507.728 290.532C507.08 290.164 506.564 289.656 506.18 289.008C505.804 288.36 505.616 287.628 505.616 286.812ZM514.897 287.664C514.897 287 515.033 286.412 515.305 285.9C515.585 285.388 515.961 284.992 516.433 284.712C516.913 284.424 517.441 284.28 518.017 284.28C518.537 284.28 518.989 284.384 519.373 284.592C519.765 284.792 520.077 285.044 520.309 285.348V284.388H521.689V291H520.309V290.016C520.077 290.328 519.761 290.588 519.361 290.796C518.961 291.004 518.505 291.108 517.993 291.108C517.425 291.108 516.905 290.964 516.433 290.676C515.961 290.38 515.585 289.972 515.305 289.452C515.033 288.924 514.897 288.328 514.897 287.664ZM520.309 287.688C520.309 287.232 520.213 286.836 520.021 286.5C519.837 286.164 519.593 285.908 519.289 285.732C518.985 285.556 518.657 285.468 518.305 285.468C517.953 285.468 517.625 285.556 517.321 285.732C517.017 285.9 516.769 286.152 516.577 286.488C516.393 286.816 516.301 287.208 516.301 287.664C516.301 288.12 516.393 288.52 516.577 288.864C516.769 289.208 517.017 289.472 517.321 289.656C517.633 289.832 517.961 289.92 518.305 289.92C518.657 289.92 518.985 289.832 519.289 289.656C519.593 289.48 519.837 289.224 520.021 288.888C520.213 288.544 520.309 288.144 520.309 287.688ZM524.854 285.348C525.054 285.012 525.318 284.752 525.646 284.568C525.982 284.376 526.378 284.28 526.834 284.28V285.696H526.486C525.95 285.696 525.542 285.832 525.262 286.104C524.99 286.376 524.854 286.848 524.854 287.52V291H523.486V284.388H524.854V285.348ZM527.635 287.664C527.635 287 527.771 286.412 528.043 285.9C528.323 285.388 528.699 284.992 529.171 284.712C529.651 284.424 530.183 284.28 530.767 284.28C531.199 284.28 531.623 284.376 532.039 284.568C532.463 284.752 532.799 285 533.047 285.312V282.12H534.427V291H533.047V290.004C532.823 290.324 532.511 290.588 532.111 290.796C531.719 291.004 531.267 291.108 530.755 291.108C530.179 291.108 529.651 290.964 529.171 290.676C528.699 290.38 528.323 289.972 528.043 289.452C527.771 288.924 527.635 288.328 527.635 287.664ZM533.047 287.688C533.047 287.232 532.951 286.836 532.759 286.5C532.575 286.164 532.331 285.908 532.027 285.732C531.723 285.556 531.395 285.468 531.043 285.468C530.691 285.468 530.363 285.556 530.059 285.732C529.755 285.9 529.507 286.152 529.315 286.488C529.131 286.816 529.039 287.208 529.039 287.664C529.039 288.12 529.131 288.52 529.315 288.864C529.507 289.208 529.755 289.472 530.059 289.656C530.371 289.832 530.699 289.92 531.043 289.92C531.395 289.92 531.723 289.832 532.027 289.656C532.331 289.48 532.575 289.224 532.759 288.888C532.951 288.544 533.047 288.144 533.047 287.688Z" fill="white"/>
<path d="M489.203 189.885H507.121V221.541H489.203V189.885Z" fill="#B27BFF"/>
<path d="M490.34 205.713C490.34 199.281 493.412 193.576 498.133 189.885C494.663 187.2 490.283 185.579 485.505 185.579C474.185 185.579 465.026 194.583 465.026 205.713C465.026 216.843 474.185 225.848 485.505 225.848C490.283 225.848 494.663 224.226 498.133 221.541C493.412 217.906 490.34 212.145 490.34 205.713V205.713Z" fill="#9E59FF"/>
<path d="M531.296 205.713C531.296 216.843 522.138 225.848 510.818 225.848C506.039 225.848 501.659 224.226 498.189 221.541C502.968 217.85 505.983 212.145 505.983 205.713C505.983 199.281 502.911 193.576 498.189 189.885C501.659 187.2 506.039 185.579 510.818 185.579C522.138 185.579 531.296 194.639 531.296 205.713H531.296Z" fill="#9E59FF"/>
</g>
<defs>
<filter id="filter0_f_323_3373" x="415" y="132" width="250" height="273" filterUnits="userSpaceOnUse" color-interpolation-filters="sRGB">
<feFlood flood-opacity="0" result="BackgroundImageFix"/>
<feBlend mode="normal" in="SourceGraphic" in2="BackgroundImageFix" result="shape"/>
<feGaussianBlur stdDeviation="12.5" result="effect1_foregroundBlur_323_3373"/>
</filter>
<linearGradient id="paint0_linear_323_3373" x1="307.103" y1="-58.0263" x2="319.647" y2="393.83" gradientUnits="userSpaceOnUse">
<stop stop-color="#9C2CF3"/>
<stop offset="1" stop-color="#3A49F9"/>
</linearGradient>
<linearGradient id="paint1_linear_323_3373" x1="547.738" y1="112.9" x2="568.331" y2="455.337" gradientUnits="userSpaceOnUse">
<stop stop-color="#9C2CF3"/>
<stop offset="1" stop-color="#3A49F9"/>
</linearGradient>
<radialGradient id="paint2_radial_323_3373" cx="0" cy="0" r="1" gradientUnits="userSpaceOnUse" gradientTransform="translate(492.934 366.594) rotate(141.774) scale(32.7287 32.3564)">
<stop stop-color="white"/>
<stop offset="1" stop-color="#DDDCDA"/>
</radialGradient>
<clipPath id="clip0_323_3373">
<rect width="654" height="423.044" fill="white"/>
</clipPath>
<clipPath id="clip1_323_3373">
<rect width="610" height="350.118" fill="white"/>
</clipPath>
<clipPath id="clip2_323_3373">
<rect width="609.616" height="350.118" fill="white"/>
</clipPath>
<clipPath id="clip3_323_3373">
<rect width="214" height="266" fill="white" transform="translate(440 157)"/>
</clipPath>
</defs>
</svg>
