<svg width="202" height="239" viewBox="0 0 202 239" fill="none" xmlns="http://www.w3.org/2000/svg">
<g clip-path="url(#clip0_335_219)">
<rect x="1" y="1" width="200" height="170" rx="29" fill="#1C1A50" stroke="url(#paint0_linear_335_219)" stroke-width="2"/>
<path d="M127.25 74.3333H124.333V30.5833C124.333 29.8097 124.026 29.0678 123.479 28.5209C122.932 27.9739 122.19 27.6666 121.417 27.6666C120.643 27.6666 119.901 27.9739 119.354 28.5209C118.807 29.0678 118.5 29.8097 118.5 30.5833V74.3333H112.667V42.2499C112.667 41.4764 112.36 40.7345 111.813 40.1875C111.266 39.6405 110.524 39.3333 109.75 39.3333C108.977 39.3333 108.235 39.6405 107.688 40.1875C107.141 40.7345 106.833 41.4764 106.833 42.2499V74.3333H101V53.9166C101 53.143 100.693 52.4012 100.146 51.8542C99.5989 51.3072 98.857 50.9999 98.0835 50.9999C97.3099 50.9999 96.5681 51.3072 96.0211 51.8542C95.4741 52.4012 95.1668 53.143 95.1668 53.9166V74.3333H89.3335V65.5833C89.3335 64.8097 89.0262 64.0678 88.4792 63.5209C87.9322 62.9739 87.1904 62.6666 86.4168 62.6666C85.6433 62.6666 84.9014 62.9739 84.3544 63.5209C83.8075 64.0678 83.5002 64.8097 83.5002 65.5833V74.3333H77.6668V24.7499C77.6668 23.9764 77.3595 23.2345 76.8126 22.6875C76.2656 22.1405 75.5237 21.8333 74.7502 21.8333C73.9766 21.8333 73.2347 22.1405 72.6878 22.6875C72.1408 23.2345 71.8335 23.9764 71.8335 24.7499V77.2499C71.8335 78.0235 72.1408 78.7653 72.6878 79.3123C73.2347 79.8593 73.9766 80.1666 74.7502 80.1666H127.25C128.024 80.1666 128.766 79.8593 129.313 79.3123C129.86 78.7653 130.167 78.0235 130.167 77.2499C130.167 76.4764 129.86 75.7345 129.313 75.1875C128.766 74.6405 128.024 74.3333 127.25 74.3333Z" fill="#F8F8F8"/>
<path d="M62.868 132.876H56.466L55.366 136H52.748L58.226 120.688H61.13L66.608 136H63.968L62.868 132.876ZM62.164 130.83L59.678 123.724L57.17 130.83H62.164ZM75.9858 123.68C76.9392 123.68 77.7898 123.878 78.5378 124.274C79.3005 124.67 79.8945 125.257 80.3198 126.034C80.7452 126.811 80.9578 127.75 80.9578 128.85V136H78.4718V129.224C78.4718 128.139 78.2005 127.31 77.6578 126.738C77.1152 126.151 76.3745 125.858 75.4358 125.858C74.4972 125.858 73.7492 126.151 73.1918 126.738C72.6492 127.31 72.3778 128.139 72.3778 129.224V136H69.8698V123.878H72.3778V125.264C72.7885 124.765 73.3092 124.377 73.9398 124.098C74.5852 123.819 75.2672 123.68 75.9858 123.68ZM84.201 129.884C84.201 128.667 84.4503 127.589 84.949 126.65C85.4623 125.711 86.1516 124.985 87.017 124.472C87.897 123.944 88.865 123.68 89.921 123.68C90.8743 123.68 91.703 123.871 92.407 124.252C93.1256 124.619 93.6976 125.081 94.123 125.638V123.878H96.653V136H94.123V134.196C93.6976 134.768 93.1183 135.245 92.385 135.626C91.6516 136.007 90.8156 136.198 89.877 136.198C88.8356 136.198 87.8823 135.934 87.017 135.406C86.1516 134.863 85.4623 134.115 84.949 133.162C84.4503 132.194 84.201 131.101 84.201 129.884ZM94.123 129.928C94.123 129.092 93.947 128.366 93.595 127.75C93.2576 127.134 92.8103 126.665 92.253 126.342C91.6956 126.019 91.0943 125.858 90.449 125.858C89.8036 125.858 89.2023 126.019 88.645 126.342C88.0876 126.65 87.633 127.112 87.281 127.728C86.9436 128.329 86.775 129.048 86.775 129.884C86.775 130.72 86.9436 131.453 87.281 132.084C87.633 132.715 88.0876 133.199 88.645 133.536C89.217 133.859 89.8183 134.02 90.449 134.02C91.0943 134.02 91.6956 133.859 92.253 133.536C92.8103 133.213 93.2576 132.744 93.595 132.128C93.947 131.497 94.123 130.764 94.123 129.928ZM103.335 119.72V136H100.827V119.72H103.335ZM118.42 123.878L110.984 141.698H108.388L110.852 135.802L106.078 123.878H108.872L112.282 133.118L115.824 123.878H118.42ZM125.593 136.198C124.639 136.198 123.781 136.029 123.019 135.692C122.271 135.34 121.677 134.871 121.237 134.284C120.797 133.683 120.562 133.015 120.533 132.282H123.129C123.173 132.795 123.415 133.228 123.855 133.58C124.309 133.917 124.874 134.086 125.549 134.086C126.253 134.086 126.795 133.954 127.177 133.69C127.573 133.411 127.771 133.059 127.771 132.634C127.771 132.179 127.551 131.842 127.111 131.622C126.685 131.402 126.003 131.16 125.065 130.896C124.155 130.647 123.415 130.405 122.843 130.17C122.271 129.935 121.772 129.576 121.347 129.092C120.936 128.608 120.731 127.97 120.731 127.178C120.731 126.533 120.921 125.946 121.303 125.418C121.684 124.875 122.227 124.45 122.931 124.142C123.649 123.834 124.471 123.68 125.395 123.68C126.773 123.68 127.881 124.032 128.717 124.736C129.567 125.425 130.022 126.371 130.081 127.574H127.573C127.529 127.031 127.309 126.599 126.913 126.276C126.517 125.953 125.981 125.792 125.307 125.792C124.647 125.792 124.141 125.917 123.789 126.166C123.437 126.415 123.261 126.745 123.261 127.156C123.261 127.479 123.378 127.75 123.613 127.97C123.847 128.19 124.133 128.366 124.471 128.498C124.808 128.615 125.307 128.769 125.967 128.96C126.847 129.195 127.565 129.437 128.123 129.686C128.695 129.921 129.186 130.273 129.597 130.742C130.007 131.211 130.22 131.835 130.235 132.612C130.235 133.301 130.044 133.917 129.663 134.46C129.281 135.003 128.739 135.428 128.035 135.736C127.345 136.044 126.531 136.198 125.593 136.198ZM135.101 122.272C134.646 122.272 134.265 122.118 133.957 121.81C133.649 121.502 133.495 121.121 133.495 120.666C133.495 120.211 133.649 119.83 133.957 119.522C134.265 119.214 134.646 119.06 135.101 119.06C135.541 119.06 135.915 119.214 136.223 119.522C136.531 119.83 136.685 120.211 136.685 120.666C136.685 121.121 136.531 121.502 136.223 121.81C135.915 122.118 135.541 122.272 135.101 122.272ZM136.333 123.878V136H133.825V123.878H136.333ZM144.905 136.198C143.952 136.198 143.094 136.029 142.331 135.692C141.583 135.34 140.989 134.871 140.549 134.284C140.109 133.683 139.875 133.015 139.845 132.282H142.441C142.485 132.795 142.727 133.228 143.167 133.58C143.622 133.917 144.187 134.086 144.861 134.086C145.565 134.086 146.108 133.954 146.489 133.69C146.885 133.411 147.083 133.059 147.083 132.634C147.083 132.179 146.863 131.842 146.423 131.622C145.998 131.402 145.316 131.16 144.377 130.896C143.468 130.647 142.727 130.405 142.155 130.17C141.583 129.935 141.085 129.576 140.659 129.092C140.249 128.608 140.043 127.97 140.043 127.178C140.043 126.533 140.234 125.946 140.615 125.418C140.997 124.875 141.539 124.45 142.243 124.142C142.962 123.834 143.783 123.68 144.707 123.68C146.086 123.68 147.193 124.032 148.029 124.736C148.88 125.425 149.335 126.371 149.393 127.574H146.885C146.841 127.031 146.621 126.599 146.225 126.276C145.829 125.953 145.294 125.792 144.619 125.792C143.959 125.792 143.453 125.917 143.101 126.166C142.749 126.415 142.573 126.745 142.573 127.156C142.573 127.479 142.691 127.75 142.925 127.97C143.16 128.19 143.446 128.366 143.783 128.498C144.121 128.615 144.619 128.769 145.279 128.96C146.159 129.195 146.878 129.437 147.435 129.686C148.007 129.921 148.499 130.273 148.909 130.742C149.32 131.211 149.533 131.835 149.547 132.612C149.547 133.301 149.357 133.917 148.975 134.46C148.594 135.003 148.051 135.428 147.347 135.736C146.658 136.044 145.844 136.198 144.905 136.198Z" fill="white"/>
<path d="M89.05 169.75V160.39H107.77V226H97.42V169.75H89.05Z" fill="url(#paint1_linear_335_219)"/>
</g>
<defs>
<linearGradient id="paint0_linear_335_219" x1="0" y1="0" x2="215.466" y2="18.9594" gradientUnits="userSpaceOnUse">
<stop stop-color="#812DE2"/>
<stop offset="1" stop-color="#3A49F9"/>
</linearGradient>
<linearGradient id="paint1_linear_335_219" x1="115.97" y1="151.093" x2="81.5386" y2="159.064" gradientUnits="userSpaceOnUse">
<stop stop-color="#4945F8"/>
<stop offset="1" stop-color="#9030F4"/>
</linearGradient>
<clipPath id="clip0_335_219">
<rect width="202" height="239" fill="white"/>
</clipPath>
</defs>
</svg>
