<svg width="202" height="239" viewBox="0 0 202 239" fill="none" xmlns="http://www.w3.org/2000/svg">
<rect x="1" y="1" width="200" height="170" rx="29" fill="#1C1A50" stroke="url(#paint0_linear_335_221)" stroke-width="2"/>
<path d="M90.5 47.5C90.5 45.6435 91.2375 43.863 92.5503 42.5503C93.863 41.2375 95.6435 40.5 97.5 40.5C99.3565 40.5 101.137 41.2375 102.45 42.5503C103.763 43.863 104.5 45.6435 104.5 47.5C104.5 49.3565 103.763 51.137 102.45 52.4497C101.137 53.7625 99.3565 54.5 97.5 54.5C95.6435 54.5 93.863 53.7625 92.5503 52.4497C91.2375 51.137 90.5 49.3565 90.5 47.5ZM97.5 44C96.5717 44 95.6815 44.3687 95.0251 45.0251C94.3687 45.6815 94 46.5717 94 47.5C94 48.4283 94.3687 49.3185 95.0251 49.9749C95.6815 50.6313 96.5717 51 97.5 51C98.4283 51 99.3185 50.6313 99.9749 49.9749C100.631 49.3185 101 48.4283 101 47.5C101 46.5717 100.631 45.6815 99.9749 45.0251C99.3185 44.3687 98.4283 44 97.5 44ZM78.25 30C76.8576 30 75.5223 30.5531 74.5377 31.5377C73.5531 32.5223 73 33.8576 73 35.25V59.75C73 61.1424 73.5531 62.4777 74.5377 63.4623C75.5223 64.4469 76.8576 65 78.25 65H116.75C118.142 65 119.478 64.4469 120.462 63.4623C121.447 62.4777 122 61.1424 122 59.75V35.25C122 33.8576 121.447 32.5223 120.462 31.5377C119.478 30.5531 118.142 30 116.75 30H78.25ZM76.5 35.25C76.5 34.7859 76.6844 34.3408 77.0126 34.0126C77.3408 33.6844 77.7859 33.5 78.25 33.5H83.5V37C83.5 37.9283 83.1313 38.8185 82.4749 39.4749C81.8185 40.1313 80.9283 40.5 80 40.5H76.5V35.25ZM76.5 44H80C81.8565 44 83.637 43.2625 84.9497 41.9497C86.2625 40.637 87 38.8565 87 37V33.5H108V37C108 38.8565 108.737 40.637 110.05 41.9497C111.363 43.2625 113.143 44 115 44H118.5V51H115C113.143 51 111.363 51.7375 110.05 53.0503C108.737 54.363 108 56.1435 108 58V61.5H87V58C87 56.1435 86.2625 54.363 84.9497 53.0503C83.637 51.7375 81.8565 51 80 51H76.5V44ZM111.5 33.5H116.75C117.214 33.5 117.659 33.6844 117.987 34.0126C118.316 34.3408 118.5 34.7859 118.5 35.25V40.5H115C114.072 40.5 113.182 40.1313 112.525 39.4749C111.869 38.8185 111.5 37.9283 111.5 37V33.5ZM118.5 54.5V59.75C118.5 60.2141 118.316 60.6592 117.987 60.9874C117.659 61.3156 117.214 61.5 116.75 61.5H111.5V58C111.5 57.0717 111.869 56.1815 112.525 55.5251C113.182 54.8687 114.072 54.5 115 54.5H118.5ZM83.5 61.5H78.25C77.7859 61.5 77.3408 61.3156 77.0126 60.9874C76.6844 60.6592 76.5 60.2141 76.5 59.75V54.5H80C80.9283 54.5 81.8185 54.8687 82.4749 55.5251C83.1313 56.1815 83.5 57.0717 83.5 58V61.5ZM125.5 59.75C125.5 62.0706 124.578 64.2962 122.937 65.9372C121.296 67.5781 119.071 68.5 116.75 68.5H80.2975C80.6595 69.524 81.3303 70.4105 82.2173 71.0374C83.1043 71.6643 84.1639 72.0006 85.25 72H116.75C119.999 72 123.115 70.7094 125.412 68.4121C127.709 66.1147 129 62.9989 129 59.75V42.25C129.001 41.1639 128.664 40.1043 128.037 39.2173C127.411 38.3303 126.524 37.6595 125.5 37.2975V59.75Z" fill="#F8F8F8"/>
<path d="M82.342 125.264C82.342 126.041 82.1587 126.775 81.792 127.464C81.4253 128.153 80.8387 128.718 80.032 129.158C79.2253 129.583 78.1913 129.796 76.93 129.796H74.158V136H71.65V120.71H76.93C78.1033 120.71 79.0933 120.915 79.9 121.326C80.7213 121.722 81.33 122.265 81.726 122.954C82.1367 123.643 82.342 124.413 82.342 125.264ZM76.93 127.75C77.8833 127.75 78.5947 127.537 79.064 127.112C79.5333 126.672 79.768 126.056 79.768 125.264C79.768 123.592 78.822 122.756 76.93 122.756H74.158V127.75H76.93ZM88.122 125.638C88.4887 125.022 88.9727 124.545 89.574 124.208C90.19 123.856 90.916 123.68 91.752 123.68V126.276H91.114C90.1313 126.276 89.3833 126.525 88.87 127.024C88.3713 127.523 88.122 128.388 88.122 129.62V136H85.614V123.878H88.122V125.638ZM100.195 136.198C99.0513 136.198 98.0173 135.941 97.0933 135.428C96.1693 134.9 95.4433 134.167 94.9153 133.228C94.3873 132.275 94.1233 131.175 94.1233 129.928C94.1233 128.696 94.3947 127.603 94.9373 126.65C95.48 125.697 96.2207 124.963 97.1593 124.45C98.098 123.937 99.1467 123.68 100.305 123.68C101.464 123.68 102.513 123.937 103.451 124.45C104.39 124.963 105.131 125.697 105.673 126.65C106.216 127.603 106.487 128.696 106.487 129.928C106.487 131.16 106.209 132.253 105.651 133.206C105.094 134.159 104.331 134.9 103.363 135.428C102.41 135.941 101.354 136.198 100.195 136.198ZM100.195 134.02C100.841 134.02 101.442 133.866 101.999 133.558C102.571 133.25 103.033 132.788 103.385 132.172C103.737 131.556 103.913 130.808 103.913 129.928C103.913 129.048 103.745 128.307 103.407 127.706C103.07 127.09 102.623 126.628 102.065 126.32C101.508 126.012 100.907 125.858 100.261 125.858C99.616 125.858 99.0147 126.012 98.4573 126.32C97.9147 126.628 97.482 127.09 97.1593 127.706C96.8367 128.307 96.6753 129.048 96.6753 129.928C96.6753 131.233 97.0053 132.245 97.6653 132.964C98.34 133.668 99.1833 134.02 100.195 134.02ZM114.929 125.924H112.685V136H110.155V125.924H108.725V123.878H110.155V123.02C110.155 121.627 110.521 120.615 111.255 119.984C112.003 119.339 113.169 119.016 114.753 119.016V121.106C113.99 121.106 113.455 121.253 113.147 121.546C112.839 121.825 112.685 122.316 112.685 123.02V123.878H114.929V125.924ZM119.307 122.272C118.853 122.272 118.471 122.118 118.163 121.81C117.855 121.502 117.701 121.121 117.701 120.666C117.701 120.211 117.855 119.83 118.163 119.522C118.471 119.214 118.853 119.06 119.307 119.06C119.747 119.06 120.121 119.214 120.429 119.522C120.737 119.83 120.891 120.211 120.891 120.666C120.891 121.121 120.737 121.502 120.429 121.81C120.121 122.118 119.747 122.272 119.307 122.272ZM120.539 123.878V136H118.031V123.878H120.539ZM127.638 125.924V132.634C127.638 133.089 127.741 133.419 127.946 133.624C128.166 133.815 128.533 133.91 129.046 133.91H130.586V136H128.606C127.477 136 126.611 135.736 126.01 135.208C125.409 134.68 125.108 133.822 125.108 132.634V125.924H123.678V123.878H125.108V120.864H127.638V123.878H130.586V125.924H127.638Z" fill="white"/>
<path d="M84.22 176.59C84.58 171.01 86.71 166.66 90.61 163.54C94.57 160.42 99.61 158.86 105.73 158.86C109.93 158.86 113.56 159.61 116.62 161.11C119.68 162.61 121.99 164.65 123.55 167.23C125.11 169.81 125.89 172.72 125.89 175.96C125.89 179.68 124.9 182.86 122.92 185.5C120.94 188.14 118.57 189.91 115.81 190.81V191.17C119.35 192.25 122.11 194.23 124.09 197.11C126.07 199.93 127.06 203.56 127.06 208C127.06 211.54 126.25 214.69 124.63 217.45C123.01 220.21 120.61 222.4 117.43 224.02C114.25 225.58 110.44 226.36 106 226.36C99.52 226.36 94.18 224.71 89.98 221.41C85.84 218.05 83.62 213.25 83.32 207.01H93.22C93.46 210.19 94.69 212.8 96.91 214.84C99.13 216.82 102.13 217.81 105.91 217.81C109.57 217.81 112.39 216.82 114.37 214.84C116.35 212.8 117.34 210.19 117.34 207.01C117.34 202.81 115.99 199.84 113.29 198.1C110.65 196.3 106.57 195.4 101.05 195.4H98.71V186.94H101.14C106 186.88 109.69 186.07 112.21 184.51C114.79 182.95 116.08 180.49 116.08 177.13C116.08 174.25 115.15 171.97 113.29 170.29C111.43 168.55 108.79 167.68 105.37 167.68C102.01 167.68 99.4 168.55 97.54 170.29C95.68 171.97 94.57 174.07 94.21 176.59H84.22Z" fill="url(#paint1_linear_335_221)"/>
<defs>
<linearGradient id="paint0_linear_335_221" x1="0" y1="0" x2="215.466" y2="18.9594" gradientUnits="userSpaceOnUse">
<stop stop-color="#812DE2"/>
<stop offset="1" stop-color="#3A49F9"/>
</linearGradient>
<linearGradient id="paint1_linear_335_221" x1="131.262" y1="151.093" x2="78.151" y2="171.843" gradientUnits="userSpaceOnUse">
<stop stop-color="#4945F8"/>
<stop offset="1" stop-color="#9030F4"/>
</linearGradient>
</defs>
</svg>
