<svg width="202" height="239" viewBox="0 0 202 239" fill="none" xmlns="http://www.w3.org/2000/svg">
<rect x="1" y="1" width="200" height="170" rx="29" fill="#1C1A50" stroke="url(#paint0_linear_335_220)" stroke-width="2"/>
<path d="M129.933 35.3083C129.637 34.5956 129.071 34.0293 128.358 33.7333C128.008 33.5839 127.631 33.5046 127.25 33.5H112.667C111.893 33.5 111.151 33.8073 110.604 34.3543C110.057 34.9013 109.75 35.6431 109.75 36.4167C109.75 37.1902 110.057 37.9321 110.604 38.4791C111.151 39.026 111.893 39.3333 112.667 39.3333H120.221L103.917 55.6375L94.3208 46.0125C94.0497 45.7391 93.7271 45.5221 93.3717 45.3741C93.0162 45.226 92.635 45.1498 92.25 45.1498C91.865 45.1498 91.4837 45.226 91.1283 45.3741C90.7729 45.5221 90.4503 45.7391 90.1792 46.0125L72.6792 63.5125C72.4058 63.7836 72.1888 64.1062 72.0407 64.4617C71.8926 64.8171 71.8164 65.1983 71.8164 65.5833C71.8164 65.9684 71.8926 66.3496 72.0407 66.705C72.1888 67.0604 72.4058 67.383 72.6792 67.6542C72.9503 67.9275 73.2729 68.1445 73.6283 68.2926C73.9837 68.4407 74.365 68.5169 74.75 68.5169C75.135 68.5169 75.5162 68.4407 75.8717 68.2926C76.2271 68.1445 76.5497 67.9275 76.8208 67.6542L92.25 52.1958L101.846 61.8208C102.117 62.0942 102.44 62.3112 102.795 62.4593C103.15 62.6073 103.532 62.6836 103.917 62.6836C104.302 62.6836 104.683 62.6073 105.038 62.4593C105.394 62.3112 105.716 62.0942 105.987 61.8208L124.333 43.4458V51C124.333 51.7736 124.641 52.5154 125.188 53.0624C125.735 53.6094 126.476 53.9167 127.25 53.9167C128.024 53.9167 128.765 53.6094 129.312 53.0624C129.859 52.5154 130.167 51.7736 130.167 51V36.4167C130.162 36.0355 130.083 35.659 129.933 35.3083V35.3083Z" fill="#F8F8F8"/>
<path d="M31.716 125.11C31.32 124.347 30.77 123.775 30.066 123.394C29.362 122.998 28.548 122.8 27.624 122.8C26.612 122.8 25.71 123.027 24.918 123.482C24.126 123.937 23.5027 124.582 23.048 125.418C22.608 126.254 22.388 127.222 22.388 128.322C22.388 129.422 22.608 130.397 23.048 131.248C23.5027 132.084 24.126 132.729 24.918 133.184C25.71 133.639 26.612 133.866 27.624 133.866C28.988 133.866 30.0953 133.485 30.946 132.722C31.7967 131.959 32.3173 130.925 32.508 129.62H26.766V127.618H35.192V129.576C35.0307 130.764 34.6053 131.857 33.916 132.854C33.2413 133.851 32.354 134.651 31.254 135.252C30.1687 135.839 28.9587 136.132 27.624 136.132C26.1867 136.132 24.874 135.802 23.686 135.142C22.498 134.467 21.552 133.536 20.848 132.348C20.1587 131.16 19.814 129.818 19.814 128.322C19.814 126.826 20.1587 125.484 20.848 124.296C21.552 123.108 22.498 122.184 23.686 121.524C24.8887 120.849 26.2013 120.512 27.624 120.512C29.252 120.512 30.6967 120.915 31.958 121.722C33.234 122.514 34.158 123.643 34.73 125.11H31.716ZM41.0536 125.638C41.4203 125.022 41.9043 124.545 42.5056 124.208C43.1216 123.856 43.8476 123.68 44.6836 123.68V126.276H44.0456C43.063 126.276 42.315 126.525 41.8016 127.024C41.303 127.523 41.0536 128.388 41.0536 129.62V136H38.5456V123.878H41.0536V125.638ZM53.127 136.198C51.983 136.198 50.949 135.941 50.025 135.428C49.101 134.9 48.375 134.167 47.847 133.228C47.319 132.275 47.055 131.175 47.055 129.928C47.055 128.696 47.3263 127.603 47.869 126.65C48.4117 125.697 49.1523 124.963 50.091 124.45C51.0297 123.937 52.0783 123.68 53.237 123.68C54.3957 123.68 55.4443 123.937 56.383 124.45C57.3217 124.963 58.0623 125.697 58.605 126.65C59.1477 127.603 59.419 128.696 59.419 129.928C59.419 131.16 59.1403 132.253 58.583 133.206C58.0257 134.159 57.263 134.9 56.295 135.428C55.3417 135.941 54.2857 136.198 53.127 136.198ZM53.127 134.02C53.7723 134.02 54.3737 133.866 54.931 133.558C55.503 133.25 55.965 132.788 56.317 132.172C56.669 131.556 56.845 130.808 56.845 129.928C56.845 129.048 56.6763 128.307 56.339 127.706C56.0017 127.09 55.5543 126.628 54.997 126.32C54.4397 126.012 53.8383 125.858 53.193 125.858C52.5477 125.858 51.9463 126.012 51.389 126.32C50.8463 126.628 50.4137 127.09 50.091 127.706C49.7683 128.307 49.607 129.048 49.607 129.928C49.607 131.233 49.937 132.245 50.597 132.964C51.2717 133.668 52.115 134.02 53.127 134.02ZM79.0583 123.878L75.2963 136H72.6563L70.2143 127.046L67.7723 136H65.1323L61.3483 123.878H63.9003L66.4303 133.624L69.0043 123.878H71.6223L74.0863 133.58L76.5943 123.878H79.0583ZM84.7386 125.924V132.634C84.7386 133.089 84.8412 133.419 85.0466 133.624C85.2666 133.815 85.6332 133.91 86.1466 133.91H87.6866V136H85.7066C84.5772 136 83.7119 135.736 83.1106 135.208C82.5092 134.68 82.2086 133.822 82.2086 132.634V125.924H80.7786V123.878H82.2086V120.864H84.7386V123.878H87.6866V125.924H84.7386ZM97.1481 123.68C98.0721 123.68 98.8935 123.878 99.6121 124.274C100.345 124.67 100.917 125.257 101.328 126.034C101.753 126.811 101.966 127.75 101.966 128.85V136H99.4801V129.224C99.4801 128.139 99.2088 127.31 98.6661 126.738C98.1235 126.151 97.3828 125.858 96.4441 125.858C95.5055 125.858 94.7575 126.151 94.2001 126.738C93.6575 127.31 93.3861 128.139 93.3861 129.224V136H90.8781V119.72H93.3861V125.286C93.8115 124.773 94.3468 124.377 94.9921 124.098C95.6521 123.819 96.3708 123.68 97.1481 123.68ZM123.332 125.264C123.332 126.041 123.149 126.775 122.782 127.464C122.415 128.153 121.829 128.718 121.022 129.158C120.215 129.583 119.181 129.796 117.92 129.796H115.148V136H112.64V120.71H117.92C119.093 120.71 120.083 120.915 120.89 121.326C121.711 121.722 122.32 122.265 122.716 122.954C123.127 123.643 123.332 124.413 123.332 125.264ZM117.92 127.75C118.873 127.75 119.585 127.537 120.054 127.112C120.523 126.672 120.758 126.056 120.758 125.264C120.758 123.592 119.812 122.756 117.92 122.756H115.148V127.75H117.92ZM132.874 123.68C133.798 123.68 134.619 123.878 135.338 124.274C136.071 124.67 136.643 125.257 137.054 126.034C137.479 126.811 137.692 127.75 137.692 128.85V136H135.206V129.224C135.206 128.139 134.935 127.31 134.392 126.738C133.849 126.151 133.109 125.858 132.17 125.858C131.231 125.858 130.483 126.151 129.926 126.738C129.383 127.31 129.112 128.139 129.112 129.224V136H126.604V119.72H129.112V125.286C129.537 124.773 130.073 124.377 130.718 124.098C131.378 123.819 132.097 123.68 132.874 123.68ZM140.935 129.884C140.935 128.667 141.185 127.589 141.683 126.65C142.197 125.711 142.886 124.985 143.751 124.472C144.631 123.944 145.599 123.68 146.655 123.68C147.609 123.68 148.437 123.871 149.141 124.252C149.86 124.619 150.432 125.081 150.857 125.638V123.878H153.387V136H150.857V134.196C150.432 134.768 149.853 135.245 149.119 135.626C148.386 136.007 147.55 136.198 146.611 136.198C145.57 136.198 144.617 135.934 143.751 135.406C142.886 134.863 142.197 134.115 141.683 133.162C141.185 132.194 140.935 131.101 140.935 129.884ZM150.857 129.928C150.857 129.092 150.681 128.366 150.329 127.75C149.992 127.134 149.545 126.665 148.987 126.342C148.43 126.019 147.829 125.858 147.183 125.858C146.538 125.858 145.937 126.019 145.379 126.342C144.822 126.65 144.367 127.112 144.015 127.728C143.678 128.329 143.509 129.048 143.509 129.884C143.509 130.72 143.678 131.453 144.015 132.084C144.367 132.715 144.822 133.199 145.379 133.536C145.951 133.859 146.553 134.02 147.183 134.02C147.829 134.02 148.43 133.859 148.987 133.536C149.545 133.213 149.992 132.744 150.329 132.128C150.681 131.497 150.857 130.764 150.857 129.928ZM161.961 136.198C161.008 136.198 160.15 136.029 159.387 135.692C158.639 135.34 158.045 134.871 157.605 134.284C157.165 133.683 156.931 133.015 156.901 132.282H159.497C159.541 132.795 159.783 133.228 160.223 133.58C160.678 133.917 161.243 134.086 161.917 134.086C162.621 134.086 163.164 133.954 163.545 133.69C163.941 133.411 164.139 133.059 164.139 132.634C164.139 132.179 163.919 131.842 163.479 131.622C163.054 131.402 162.372 131.16 161.433 130.896C160.524 130.647 159.783 130.405 159.211 130.17C158.639 129.935 158.141 129.576 157.715 129.092C157.305 128.608 157.099 127.97 157.099 127.178C157.099 126.533 157.29 125.946 157.671 125.418C158.053 124.875 158.595 124.45 159.299 124.142C160.018 123.834 160.839 123.68 161.763 123.68C163.142 123.68 164.249 124.032 165.085 124.736C165.936 125.425 166.391 126.371 166.449 127.574H163.941C163.897 127.031 163.677 126.599 163.281 126.276C162.885 125.953 162.35 125.792 161.675 125.792C161.015 125.792 160.509 125.917 160.157 126.166C159.805 126.415 159.629 126.745 159.629 127.156C159.629 127.479 159.747 127.75 159.981 127.97C160.216 128.19 160.502 128.366 160.839 128.498C161.177 128.615 161.675 128.769 162.335 128.96C163.215 129.195 163.934 129.437 164.491 129.686C165.063 129.921 165.555 130.273 165.965 130.742C166.376 131.211 166.589 131.835 166.603 132.612C166.603 133.301 166.413 133.917 166.031 134.46C165.65 135.003 165.107 135.428 164.403 135.736C163.714 136.044 162.9 136.198 161.961 136.198ZM181.303 129.642C181.303 130.097 181.274 130.507 181.215 130.874H171.953C172.027 131.842 172.386 132.619 173.031 133.206C173.677 133.793 174.469 134.086 175.407 134.086C176.757 134.086 177.71 133.521 178.267 132.392H180.973C180.607 133.507 179.939 134.423 178.971 135.142C178.018 135.846 176.83 136.198 175.407 136.198C174.249 136.198 173.207 135.941 172.283 135.428C171.374 134.9 170.655 134.167 170.127 133.228C169.614 132.275 169.357 131.175 169.357 129.928C169.357 128.681 169.607 127.589 170.105 126.65C170.619 125.697 171.33 124.963 172.239 124.45C173.163 123.937 174.219 123.68 175.407 123.68C176.551 123.68 177.571 123.929 178.465 124.428C179.36 124.927 180.057 125.631 180.555 126.54C181.054 127.435 181.303 128.469 181.303 129.642ZM178.685 128.85C178.671 127.926 178.341 127.185 177.695 126.628C177.05 126.071 176.251 125.792 175.297 125.792C174.432 125.792 173.691 126.071 173.075 126.628C172.459 127.171 172.093 127.911 171.975 128.85H178.685Z" fill="white"/>
<path d="M86.07 212.05C91.83 207.07 96.36 202.99 99.66 199.81C103.02 196.57 105.81 193.21 108.03 189.73C110.25 186.25 111.36 182.77 111.36 179.29C111.36 175.69 110.49 172.87 108.75 170.83C107.07 168.79 104.4 167.77 100.74 167.77C97.2 167.77 94.44 168.91 92.46 171.19C90.54 173.41 89.52 176.41 89.4 180.19H79.5C79.68 173.35 81.72 168.13 85.62 164.53C89.58 160.87 94.59 159.04 100.65 159.04C107.19 159.04 112.29 160.84 115.95 164.44C119.67 168.04 121.53 172.84 121.53 178.84C121.53 183.16 120.42 187.33 118.2 191.35C116.04 195.31 113.43 198.88 110.37 202.06C107.37 205.18 103.53 208.81 98.85 212.95L94.8 216.55H123.33V225.1H79.59V217.63L86.07 212.05Z" fill="url(#paint1_linear_335_220)"/>
<defs>
<linearGradient id="paint0_linear_335_220" x1="0" y1="0" x2="215.466" y2="18.9594" gradientUnits="userSpaceOnUse">
<stop stop-color="#812DE2"/>
<stop offset="1" stop-color="#3A49F9"/>
</linearGradient>
<linearGradient id="paint1_linear_335_220" x1="125.327" y1="151.093" x2="73.6853" y2="170.521" gradientUnits="userSpaceOnUse">
<stop stop-color="#4945F8"/>
<stop offset="1" stop-color="#9030F4"/>
</linearGradient>
</defs>
</svg>
