<svg width="234" height="53" viewBox="0 0 234 53" fill="none" xmlns="http://www.w3.org/2000/svg">
<path fill-rule="evenodd" clip-rule="evenodd" d="M24.1814 0V7.71404C19.2278 7.71404 14.4771 9.69328 10.9744 13.2163C7.47176 16.7393 5.50397 21.5176 5.50397 26.5C5.50397 31.4824 7.47176 36.2605 10.9744 39.7836C14.4771 43.3066 19.2278 45.286 24.1814 45.286V53H0V0H24.1814ZM24.1815 45.286V7.71411C29.135 7.71411 33.8858 9.69335 37.3885 13.2164C40.8912 16.7394 42.8589 21.5177 42.8589 26.5001C42.8589 31.4824 40.8912 36.2606 37.3885 39.7837C33.8858 43.3067 29.135 45.286 24.1815 45.286ZM56.4294 12.4331H61.8432V38.6608H56.4294V12.4331ZM66.4747 24.3769C65.4313 25.9451 64.8742 27.7895 64.8742 29.6765C64.8574 30.928 65.0891 32.1702 65.5558 33.3304C66.0227 34.4906 66.7149 35.5455 67.5923 36.4331C68.4697 37.3205 69.5145 38.0229 70.6653 38.499C71.8161 38.9753 73.0499 39.2154 74.2941 39.2056C76.1702 39.2163 78.0072 38.6667 79.5724 37.6261C81.1375 36.5857 82.3601 35.1012 83.0855 33.3611C83.811 31.6208 84.0062 29.7032 83.6469 27.8511C83.2874 25.999 82.3893 24.2961 81.0666 22.9578C79.7438 21.6198 78.0558 20.7068 76.2166 20.3347C74.3773 19.9626 72.4697 20.1481 70.7353 20.8676C69.0009 21.5873 67.5181 22.8086 66.4747 24.3769ZM77.6992 27.4078C78.1641 28.0738 78.4234 28.863 78.4447 29.6765H78.4086C78.4385 30.2299 78.3546 30.7835 78.1621 31.3028C77.9695 31.8219 77.6727 32.2958 77.2899 32.6944C76.9072 33.093 76.4468 33.4079 75.9376 33.6194C75.4283 33.831 74.8812 33.9346 74.3302 33.9237C73.5211 33.9234 72.7301 33.6832 72.0561 33.2331C71.3819 32.7832 70.8548 32.143 70.5404 31.3932C70.2261 30.6434 70.1385 29.817 70.2887 29.0173C70.4388 28.2175 70.8201 27.4803 71.3848 26.8974C71.9494 26.3144 72.6724 25.912 73.4633 25.7403C74.2541 25.5684 75.0777 25.6351 75.8311 25.9316C76.5847 26.2282 77.2343 26.7417 77.6992 27.4078ZM105.135 20.6919V37.7716C105.135 43.7977 100.443 46.3569 95.6969 46.3569C94.0228 46.495 92.3436 46.1605 90.8485 45.3909C89.3532 44.6214 88.1012 43.4472 87.2334 42.0008L91.799 39.3508C92.1689 40.1011 92.7574 40.72 93.4861 41.1253C94.2148 41.5307 95.0488 41.7031 95.8773 41.6196C96.4052 41.6849 96.9408 41.6323 97.4459 41.4653C97.9511 41.2981 98.4133 41.021 98.7995 40.6533C99.1859 40.2855 99.4865 39.8367 99.6801 39.3384C99.8738 38.8404 99.9555 38.3053 99.9196 37.7716V36.1199C99.2896 36.8883 98.4902 37.4981 97.585 37.9014C96.6796 38.3047 95.6934 38.4902 94.7043 38.4432C92.3113 38.4432 90.0164 37.487 88.3242 35.7851C86.6321 34.0832 85.6814 31.7748 85.6814 29.3679C85.6814 26.9609 86.6321 24.6527 88.3242 22.9507C90.0164 21.2487 92.3113 20.2925 94.7043 20.2925C95.6934 20.2455 96.6796 20.431 97.585 20.8343C98.4902 21.2376 99.2896 21.8475 99.9196 22.6158V20.8008L105.135 20.6919ZM99.9196 29.3134C99.9555 28.4451 99.7325 27.5857 99.279 26.8458C98.8255 26.106 98.1625 25.5196 97.3748 25.1618C96.5872 24.8041 95.7115 24.6915 94.8597 24.8386C94.0081 24.9856 93.2195 25.3854 92.5957 25.9868C91.9719 26.5881 91.5411 27.3635 91.3588 28.2131C91.1766 29.0628 91.2511 29.9476 91.5729 30.7542C91.8948 31.5608 92.4492 32.2522 93.1647 32.7394C93.8804 33.2265 94.7246 33.4874 95.5886 33.4881C96.1525 33.5289 96.7186 33.4503 97.2503 33.2576C97.7821 33.0646 98.2679 32.7617 98.6759 32.3682C99.0841 31.9749 99.4056 31.4997 99.6198 30.9735C99.8341 30.4473 99.9362 29.8817 99.9196 29.3134ZM109.782 24.3804C108.741 25.9478 108.184 27.7909 108.184 29.6764C108.17 30.9302 108.405 32.1744 108.874 33.3359C109.344 34.4974 110.04 35.5528 110.921 36.4404C111.801 37.328 112.849 38.0297 114.003 38.5045C115.157 38.9793 116.394 39.2176 117.64 39.2055C119.515 39.2091 121.348 38.6533 122.909 37.6084C124.469 36.5635 125.686 35.0765 126.406 33.3355C127.126 31.5947 127.316 29.6782 126.953 27.8284C126.589 25.9789 125.688 24.2793 124.364 22.9446C123.04 21.6102 121.352 20.7008 119.513 20.3317C117.675 19.9625 115.769 20.1502 114.037 20.8709C112.305 21.5915 110.824 22.8129 109.782 24.3804ZM121.008 27.4057C121.474 28.0722 121.734 28.8621 121.755 29.6764H121.737C121.767 30.2298 121.683 30.7834 121.49 31.3027C121.298 31.8218 121.001 32.2957 120.618 32.6943C120.235 33.0929 119.775 33.4078 119.266 33.6192C118.757 33.8309 118.209 33.9345 117.658 33.9236C116.849 33.9269 116.056 33.6897 115.379 33.2419C114.703 32.7939 114.173 32.1552 113.856 31.4056C113.539 30.6561 113.449 29.8292 113.597 29.0284C113.745 28.2276 114.125 27.4885 114.689 26.9038C115.253 26.3192 115.975 25.9148 116.767 25.7417C117.558 25.5683 118.383 25.6338 119.137 25.9299C119.892 26.2259 120.543 26.7394 121.008 27.4057ZM129.605 15.8819C129.605 15.243 129.794 14.6183 130.147 14.087C130.5 13.5557 131.001 13.1416 131.588 12.8971C132.175 12.6525 132.821 12.5885 133.444 12.7132C134.067 12.8379 134.639 13.1456 135.089 13.5974C135.538 14.0493 135.844 14.625 135.968 15.2516C136.092 15.8783 136.028 16.5279 135.785 17.1184C135.542 17.7086 135.13 18.2132 134.602 18.5682C134.074 18.9233 133.453 19.1128 132.817 19.1128C131.968 19.1033 131.157 18.7599 130.556 18.156C129.956 17.5522 129.615 16.7359 129.605 15.8819ZM130.129 20.6919H135.542V38.6611H130.129V20.6919ZM158.198 33.1935C158.598 32.0667 158.773 30.8713 158.713 29.6763C158.766 28.4856 158.586 27.2962 158.182 26.1757C157.778 25.0551 157.159 24.0256 156.36 23.1458C155.56 22.2661 154.597 21.5531 153.523 21.048C152.45 20.5428 151.289 20.2551 150.105 20.2016C149.098 20.1304 148.087 20.2894 147.15 20.6668C146.212 21.044 145.372 21.6295 144.691 22.3797V20.6917H139.277V45.8848H144.691V37.0091C145.371 37.7615 146.211 38.3497 147.148 38.7302C148.086 39.1104 149.096 39.2729 150.105 39.2054C151.293 39.1518 152.46 38.8625 153.536 38.3539C154.613 37.8453 155.58 37.1277 156.38 36.2419C157.18 35.3563 157.798 34.3203 158.198 33.1935ZM152.528 27.325C153.009 28.0153 153.278 28.8332 153.299 29.6763C153.34 30.2529 153.26 30.8317 153.063 31.375C152.866 31.918 152.557 32.4134 152.157 32.8281C151.757 33.2429 151.274 33.5678 150.739 33.7816C150.205 33.9954 149.632 34.0932 149.058 34.0687C148.22 34.072 147.399 33.8264 146.699 33.3625C145.999 32.8985 145.45 32.2371 145.122 31.4612C144.794 30.6851 144.701 29.8289 144.855 29C145.009 28.1708 145.402 27.406 145.986 26.801C146.57 26.196 147.319 25.7779 148.138 25.5991C148.958 25.4203 149.811 25.4885 150.592 25.7956C151.373 26.1026 152.046 26.6347 152.528 27.325ZM175.189 33.2702C175.189 37.4086 171.58 39.1692 167.754 39.1692C166.194 39.3104 164.627 38.9777 163.257 38.2141C161.886 37.4505 160.775 36.2911 160.066 34.8857L164.722 32.2356C164.907 32.8833 165.307 33.4476 165.855 33.8342C166.404 34.2208 167.068 34.4061 167.736 34.3593C169.017 34.3593 169.667 33.96 169.667 33.2339C169.667 32.5207 168.525 32.2014 167.064 31.7931C164.473 31.0686 160.879 30.0639 160.879 26.0826C160.879 22.162 164.163 20.2017 167.88 20.2017C169.293 20.138 170.697 20.4606 171.943 21.1349C173.188 21.8092 174.229 22.8102 174.954 24.0315L170.298 26.5C170.093 26.0317 169.757 25.6335 169.331 25.3533C168.905 25.073 168.407 24.9229 167.898 24.9209C166.96 24.9209 166.401 25.2839 166.401 25.9192C166.401 26.6604 167.528 26.9614 168.975 27.3478C171.569 28.0402 175.189 29.0066 175.189 33.2702ZM189.392 38.6609H194.805V20.6918H189.464V30.5839C189.464 33.0524 188.092 34.214 186.143 34.214C185.716 34.2398 185.288 34.1719 184.889 34.0151C184.49 33.8581 184.129 33.616 183.832 33.3054C183.536 32.9947 183.31 32.6229 183.169 32.2158C183.029 31.8085 182.978 31.3756 183.021 30.9469V20.6918H177.608V31.7637C177.608 36.6099 180.694 39.2055 184.303 39.2055C185.266 39.2605 186.228 39.0871 187.112 38.6992C187.995 38.3114 188.776 37.7202 189.392 36.9729V38.6609ZM225.482 27.6255V38.6611H220.068V28.0974C220.068 26.2823 219.22 25.157 217.506 25.157C215.792 25.157 214.709 26.4094 214.709 28.533V38.6611H209.295V28.0974C209.295 26.2823 208.447 25.157 206.733 25.157C205.018 25.157 203.936 26.4094 203.936 28.533V38.6611H198.522V20.6919H203.936V22.3436C204.497 21.6139 205.228 21.036 206.067 20.6621C206.904 20.2882 207.823 20.1299 208.736 20.2018C209.651 20.1537 210.564 20.3461 211.383 20.7598C212.202 21.1734 212.901 21.7944 213.41 22.5614C214.005 21.7599 214.792 21.1232 215.698 20.7106C216.602 20.2978 217.598 20.1229 218.589 20.2018C222.811 20.2018 225.482 23.1422 225.482 27.6255ZM234 16.5896C234 18.7949 232.223 20.5827 230.03 20.5827C227.838 20.5827 226.06 18.7949 226.06 16.5896C226.06 14.3843 227.838 12.5964 230.03 12.5964C232.223 12.5964 234 14.3843 234 16.5896Z" fill="white" fill-opacity="0.8"/>
</svg>
