<svg class="logo" width="188" height="35" viewBox="0 0 188 35" fill="none" xmlns="http://www.w3.org/2000/svg">
  <path fill="#F8F8F8" d="M0 32.4995H35V34.9995H0V32.4995ZM31.25 11.2495C31.5815 11.2495 31.8995 11.1178 32.1339 10.8834C32.3683 10.6489 32.5 10.331 32.5 9.99947V6.24947C32.4999 5.99258 32.4206 5.74196 32.273 5.53171C32.1254 5.32147 31.9166 5.16181 31.675 5.07447L17.925 0.0744682C17.6504 -0.0248227 17.3496 -0.0248227 17.075 0.0744682L3.325 5.07447C3.08341 5.16181 2.8746 5.32147 2.72698 5.53171C2.57937 5.74196 2.50011 5.99258 2.5 6.24947V9.99947C2.5 10.331 2.6317 10.6489 2.86612 10.8834C3.10054 11.1178 3.41848 11.2495 3.75 11.2495H5V27.4995H2.5V29.9995H32.5V27.4995H30V11.2495H31.25ZM5 7.12447L17.5 2.57447L30 7.12447V8.74947H5V7.12447ZM20 27.4995H15V11.2495H20V27.4995ZM7.5 11.2495H12.5V27.4995H7.5V11.2495ZM27.5 27.4995H22.5V11.2495H27.5V27.4995Z"/>
  <path fill="white" d="M56.592 24.9997L53.072 18.8837H51.158V24.9997H48.65V9.70972H53.93C55.1033 9.70972 56.0933 9.91506 56.9 10.3257C57.7213 10.7364 58.33 11.2864 58.726 11.9757C59.1367 12.6651 59.342 13.4351 59.342 14.2857C59.342 15.2831 59.0487 16.1924 58.462 17.0137C57.89 17.8204 57.0027 18.3704 55.8 18.6637L59.584 24.9997H56.592ZM51.158 16.8817H53.93C54.8687 16.8817 55.5727 16.6471 56.042 16.1777C56.526 15.7084 56.768 15.0777 56.768 14.2857C56.768 13.4937 56.5333 12.8777 56.064 12.4377C55.5947 11.9831 54.8833 11.7557 53.93 11.7557H51.158V16.8817ZM64.3264 11.2717C63.8717 11.2717 63.4904 11.1177 63.1824 10.8097C62.8744 10.5017 62.7204 10.1204 62.7204 9.66572C62.7204 9.21106 62.8744 8.82972 63.1824 8.52173C63.4904 8.21372 63.8717 8.05972 64.3264 8.05972C64.7664 8.05972 65.1404 8.21372 65.4484 8.52173C65.7564 8.82972 65.9104 9.21106 65.9104 9.66572C65.9104 10.1204 65.7564 10.5017 65.4484 10.8097C65.1404 11.1177 64.7664 11.2717 64.3264 11.2717ZM65.5584 12.8777V24.9997H63.0504V12.8777H65.5584ZM73.7512 25.1977C72.7978 25.1977 71.9398 25.0291 71.1772 24.6917C70.4292 24.3397 69.8352 23.8704 69.3952 23.2837C68.9552 22.6824 68.7205 22.0151 68.6912 21.2817H71.2872C71.3312 21.7951 71.5732 22.2277 72.0132 22.5797C72.4678 22.9171 73.0325 23.0857 73.7072 23.0857C74.4112 23.0857 74.9538 22.9537 75.3352 22.6897C75.7312 22.4111 75.9292 22.0591 75.9292 21.6337C75.9292 21.1791 75.7092 20.8417 75.2692 20.6217C74.8438 20.4017 74.1618 20.1597 73.2232 19.8957C72.3138 19.6464 71.5732 19.4044 71.0012 19.1697C70.4292 18.9351 69.9305 18.5757 69.5052 18.0917C69.0945 17.6077 68.8892 16.9697 68.8892 16.1777C68.8892 15.5324 69.0798 14.9457 69.4612 14.4177C69.8425 13.8751 70.3852 13.4497 71.0892 13.1417C71.8078 12.8337 72.6292 12.6797 73.5532 12.6797C74.9318 12.6797 76.0392 13.0317 76.8752 13.7357C77.7258 14.4251 78.1805 15.3711 78.2392 16.5737H75.7312C75.6872 16.0311 75.4672 15.5984 75.0712 15.2757C74.6752 14.9531 74.1398 14.7917 73.4652 14.7917C72.8052 14.7917 72.2992 14.9164 71.9472 15.1657C71.5952 15.4151 71.4192 15.7451 71.4192 16.1557C71.4192 16.4784 71.5365 16.7497 71.7712 16.9697C72.0058 17.1897 72.2918 17.3657 72.6292 17.4977C72.9665 17.6151 73.4652 17.7691 74.1252 17.9597C75.0052 18.1944 75.7238 18.4364 76.2812 18.6857C76.8532 18.9204 77.3445 19.2724 77.7552 19.7417C78.1658 20.2111 78.3785 20.8344 78.3932 21.6117C78.3932 22.3011 78.2025 22.9171 77.8212 23.4597C77.4398 24.0024 76.8972 24.4277 76.1932 24.7357C75.5038 25.0437 74.6898 25.1977 73.7512 25.1977ZM92.7131 18.6417C92.7131 19.0964 92.6838 19.5071 92.6251 19.8737H83.3631C83.4365 20.8417 83.7958 21.6191 84.4411 22.2057C85.0865 22.7924 85.8785 23.0857 86.8171 23.0857C88.1665 23.0857 89.1198 22.5211 89.6771 21.3917H92.3831C92.0165 22.5064 91.3491 23.4231 90.3811 24.1417C89.4278 24.8457 88.2398 25.1977 86.8171 25.1977C85.6585 25.1977 84.6171 24.9411 83.6931 24.4277C82.7838 23.8997 82.0651 23.1664 81.5371 22.2277C81.0238 21.2744 80.7671 20.1744 80.7671 18.9277C80.7671 17.6811 81.0165 16.5884 81.5151 15.6497C82.0285 14.6964 82.7398 13.9631 83.6491 13.4497C84.5731 12.9364 85.6291 12.6797 86.8171 12.6797C87.9611 12.6797 88.9805 12.9291 89.8751 13.4277C90.7698 13.9264 91.4665 14.6304 91.9651 15.5397C92.4638 16.4344 92.7131 17.4684 92.7131 18.6417ZM90.0951 17.8497C90.0805 16.9257 89.7505 16.1851 89.1051 15.6277C88.4598 15.0704 87.6605 14.7917 86.7071 14.7917C85.8418 14.7917 85.1011 15.0704 84.4851 15.6277C83.8691 16.1704 83.5025 16.9111 83.3851 17.8497H90.0951ZM105.449 9.55572V12.5697H99.1573V15.8257H103.865V18.7517H99.1573V24.9997H95.3953V9.55572H105.449ZM109.819 11.4477C109.159 11.4477 108.616 11.2571 108.191 10.8757C107.78 10.4797 107.575 9.99572 107.575 9.42373C107.575 8.83706 107.78 8.35306 108.191 7.97172C108.616 7.57572 109.159 7.37772 109.819 7.37772C110.464 7.37772 110.992 7.57572 111.403 7.97172C111.828 8.35306 112.041 8.83706 112.041 9.42373C112.041 9.99572 111.828 10.4797 111.403 10.8757C110.992 11.2571 110.464 11.4477 109.819 11.4477ZM111.689 12.7237V24.9997H107.927V12.7237H111.689ZM122.395 12.5917C123.832 12.5917 124.976 13.0611 125.827 13.9997C126.692 14.9237 127.125 16.1997 127.125 17.8277V24.9997H123.385V18.3337C123.385 17.5124 123.172 16.8744 122.747 16.4197C122.321 15.9651 121.749 15.7377 121.031 15.7377C120.312 15.7377 119.74 15.9651 119.315 16.4197C118.889 16.8744 118.677 17.5124 118.677 18.3337V24.9997H114.915V12.7237H118.677V14.3517C119.058 13.8091 119.571 13.3837 120.217 13.0757C120.862 12.7531 121.588 12.5917 122.395 12.5917ZM129.491 18.8397C129.491 17.5784 129.726 16.4711 130.195 15.5177C130.679 14.5644 131.332 13.8311 132.153 13.3177C132.974 12.8044 133.891 12.5477 134.903 12.5477C135.768 12.5477 136.524 12.7237 137.169 13.0757C137.829 13.4277 138.335 13.8897 138.687 14.4617V12.7237H142.449V24.9997H138.687V23.2617C138.32 23.8337 137.807 24.2957 137.147 24.6477C136.502 24.9997 135.746 25.1757 134.881 25.1757C133.884 25.1757 132.974 24.9191 132.153 24.4057C131.332 23.8777 130.679 23.1371 130.195 22.1837C129.726 21.2157 129.491 20.1011 129.491 18.8397ZM138.687 18.8617C138.687 17.9231 138.423 17.1824 137.895 16.6397C137.382 16.0971 136.751 15.8257 136.003 15.8257C135.255 15.8257 134.617 16.0971 134.089 16.6397C133.576 17.1677 133.319 17.9011 133.319 18.8397C133.319 19.7784 133.576 20.5264 134.089 21.0837C134.617 21.6264 135.255 21.8977 136.003 21.8977C136.751 21.8977 137.382 21.6264 137.895 21.0837C138.423 20.5411 138.687 19.8004 138.687 18.8617ZM153.151 12.5917C154.588 12.5917 155.732 13.0611 156.583 13.9997C157.448 14.9237 157.881 16.1997 157.881 17.8277V24.9997H154.141V18.3337C154.141 17.5124 153.928 16.8744 153.503 16.4197C153.077 15.9651 152.505 15.7377 151.787 15.7377C151.068 15.7377 150.496 15.9651 150.071 16.4197C149.645 16.8744 149.433 17.5124 149.433 18.3337V24.9997H145.671V12.7237H149.433V14.3517C149.814 13.8091 150.327 13.3837 150.973 13.0757C151.618 12.7531 152.344 12.5917 153.151 12.5917ZM160.247 18.8617C160.247 17.5857 160.504 16.4711 161.017 15.5177C161.545 14.5644 162.271 13.8311 163.195 13.3177C164.134 12.8044 165.204 12.5477 166.407 12.5477C167.947 12.5477 169.23 12.9511 170.257 13.7577C171.298 14.5644 171.98 15.7011 172.303 17.1677H168.299C167.962 16.2291 167.309 15.7597 166.341 15.7597C165.652 15.7597 165.102 16.0311 164.691 16.5737C164.28 17.1017 164.075 17.8644 164.075 18.8617C164.075 19.8591 164.28 20.6291 164.691 21.1717C165.102 21.6997 165.652 21.9637 166.341 21.9637C167.309 21.9637 167.962 21.4944 168.299 20.5557H172.303C171.98 21.9931 171.298 23.1224 170.257 23.9437C169.216 24.7651 167.932 25.1757 166.407 25.1757C165.204 25.1757 164.134 24.9191 163.195 24.4057C162.271 23.8924 161.545 23.1591 161.017 22.2057C160.504 21.2524 160.247 20.1377 160.247 18.8617ZM186.387 18.6637C186.387 19.0157 186.365 19.3824 186.321 19.7637H177.807C177.866 20.5264 178.108 21.1131 178.533 21.5237C178.973 21.9197 179.509 22.1177 180.139 22.1177C181.078 22.1177 181.731 21.7217 182.097 20.9297H186.101C185.896 21.7364 185.522 22.4624 184.979 23.1077C184.451 23.7531 183.784 24.2591 182.977 24.6257C182.171 24.9924 181.269 25.1757 180.271 25.1757C179.069 25.1757 177.998 24.9191 177.059 24.4057C176.121 23.8924 175.387 23.1591 174.859 22.2057C174.331 21.2524 174.067 20.1377 174.067 18.8617C174.067 17.5857 174.324 16.4711 174.837 15.5177C175.365 14.5644 176.099 13.8311 177.037 13.3177C177.976 12.8044 179.054 12.5477 180.271 12.5477C181.459 12.5477 182.515 12.7971 183.439 13.2957C184.363 13.7944 185.082 14.5057 185.595 15.4297C186.123 16.3537 186.387 17.4317 186.387 18.6637ZM182.537 17.6737C182.537 17.0284 182.317 16.5151 181.877 16.1337C181.437 15.7524 180.887 15.5617 180.227 15.5617C179.597 15.5617 179.061 15.7451 178.621 16.1117C178.196 16.4784 177.932 16.9991 177.829 17.6737H182.537Z"/>
</svg>
